<svg xmlns="http://www.w3.org/2000/svg" viewBox="0 0 620 360" role="img" aria-labelledby="title desc">
  <title id="title">Защищенный вход</title>
  <desc id="desc">Щит, замок с галочкой и российская лента.</desc>
  <defs>
    <linearGradient id="shieldFill" x1="183" y1="20" x2="421" y2="271" gradientUnits="userSpaceOnUse">
      <stop stop-color="#f8fbff"/>
      <stop offset=".48" stop-color="#dce9ff"/>
      <stop offset="1" stop-color="#b6cff8"/>
    </linearGradient>
    <linearGradient id="lockBody" x1="248" y1="124" x2="371" y2="250" gradientUnits="userSpaceOnUse">
      <stop stop-color="#8fb6ff"/>
      <stop offset=".5" stop-color="#4b83ed"/>
      <stop offset="1" stop-color="#1d55c9"/>
    </linearGradient>
    <linearGradient id="lockTop" x1="251" y1="73" x2="355" y2="158" gradientUnits="userSpaceOnUse">
      <stop stop-color="#97bdff"/>
      <stop offset="1" stop-color="#1554cd"/>
    </linearGradient>
    <linearGradient id="leaf" x1="0" y1="0" x2="0" y2="1">
      <stop stop-color="#dce9ff"/>
      <stop offset="1" stop-color="#8fb0ec"/>
    </linearGradient>
    <filter id="softShadow" x="-30%" y="-30%" width="160%" height="170%" color-interpolation-filters="sRGB">
      <feDropShadow dx="0" dy="16" stdDeviation="16" flood-color="#0d47a1" flood-opacity=".18"/>
    </filter>
    <filter id="deepShadow" x="-40%" y="-40%" width="180%" height="180%" color-interpolation-filters="sRGB">
      <feDropShadow dx="0" dy="14" stdDeviation="10" flood-color="#06388f" flood-opacity=".28"/>
    </filter>
  </defs>

  <g opacity=".78">
    <path d="M128 190c-28-17-44-43-48-78 27 14 45 38 48 78Z" fill="url(#leaf)"/>
    <path d="M137 172c-8-31-1-60 22-87 10 28 3 59-22 87Z" fill="url(#leaf)"/>
    <path d="M111 237c-35-3-62-18-82-46 31 2 59 19 82 46Z" fill="url(#leaf)"/>
    <path d="M143 236c-24-28-33-60-26-96 23 23 33 56 26 96Z" fill="#bfd4fa"/>
    <path d="M491 214c22-30 31-62 27-96-24 23-34 56-27 96Z" fill="url(#leaf)"/>
    <path d="M518 245c30-18 48-43 55-76-31 13-51 39-55 76Z" fill="#b7cff7"/>
    <path d="M468 249c15-34 15-67 0-101-17 29-17 63 0 101Z" fill="#d6e5ff"/>
  </g>

  <g filter="url(#softShadow)">
    <path d="M310 30c60 43 98 39 111 57v88c0 60-37 101-111 127-74-26-111-67-111-127V87c13-18 51-14 111-57Z" fill="url(#shieldFill)" stroke="#c7d9f9" stroke-width="2"/>
    <path d="M310 55c47 31 78 31 88 44v73c0 47-28 78-88 100-60-22-88-53-88-100V99c10-13 41-13 88-44Z" fill="#eaf3ff" opacity=".74" stroke="#d5e3fb"/>
  </g>

  <g filter="url(#deepShadow)">
    <path d="M260 145v-37c0-32 22-55 51-55 31 0 53 23 53 55v37h-28v-36c0-17-10-29-25-29s-25 12-25 29v36h-26Z" fill="url(#lockTop)"/>
    <rect x="244" y="132" width="137" height="105" rx="18" fill="url(#lockBody)"/>
    <rect x="254" y="143" width="116" height="82" rx="13" fill="#74a3fb" opacity=".48"/>
    <path d="m286 183 23 23 49-54" fill="none" stroke="#08369c" stroke-width="16" stroke-linecap="round" stroke-linejoin="round" opacity=".18"/>
    <path d="m286 176 23 23 49-54" fill="none" stroke="#e9f2ff" stroke-width="13" stroke-linecap="round" stroke-linejoin="round"/>
    <path d="m286 176 23 23 49-54" fill="none" stroke="#0a56d6" stroke-width="8" stroke-linecap="round" stroke-linejoin="round"/>
  </g>

  <g filter="url(#softShadow)">
    <path d="M20 257c97-16 157-14 237 15 80 29 175 8 343-12v31c-154 20-257 34-350 4-78-25-141-32-230-19v-19Z" fill="#f7fbff"/>
    <path d="M20 265c105-15 167-7 248 20 78 26 171 6 332-12v28c-151 20-251 31-340 3-80-26-143-35-240-19v-20Z" fill="#0d4fd0"/>
    <path d="M20 290c96-14 163-4 244 20 84 25 181 10 336-10v25c-151 25-252 34-343 8-82-23-147-33-237-16v-27Z" fill="#ef2f2c"/>
  </g>
</svg>
