<svg xmlns="http://www.w3.org/2000/svg">
  <symbol id="logo" viewBox="0 0 64 64">
    <path d="M12 8h24c6.6 0 12 5.4 12 12v13h7v11h-7v12H12V8z" fill="none" stroke="currentColor" stroke-width="5" stroke-linejoin="round"/>
    <path d="M20 42c8 5 16 7 27 5 4-.7 7.5-.2 10 1.6-5.6 6.5-14.5 9.7-26.7 9.7-7 0-13.6-1.9-19.3-5.6" fill="none" stroke="currentColor" stroke-width="5" stroke-linecap="round"/>
    <path d="M32 38s-9-5.6-9-12a5.7 5.7 0 0 1 9-4.7A5.7 5.7 0 0 1 41 26c0 6.4-9 12-9 12z" fill="#ef2f2c"/>
  </symbol>
  <symbol id="grid" viewBox="0 0 24 24">
    <rect x="3" y="3" width="7" height="7" rx="1.6" fill="none" stroke="currentColor" stroke-width="2"/>
    <rect x="14" y="3" width="7" height="7" rx="1.6" fill="none" stroke="currentColor" stroke-width="2"/>
    <rect x="3" y="14" width="7" height="7" rx="1.6" fill="none" stroke="currentColor" stroke-width="2"/>
    <rect x="14" y="14" width="7" height="7" rx="1.6" fill="none" stroke="currentColor" stroke-width="2"/>
  </symbol>
  <symbol id="user" viewBox="0 0 24 24">
    <circle cx="12" cy="8" r="4" fill="none" stroke="currentColor" stroke-width="2"/>
    <path d="M4 21c1.5-4.1 4.2-6 8-6s6.5 1.9 8 6" fill="none" stroke="currentColor" stroke-width="2" stroke-linecap="round"/>
  </symbol>
  <symbol id="user-plus" viewBox="0 0 24 24">
    <circle cx="9" cy="8" r="4" fill="none" stroke="currentColor" stroke-width="2"/>
    <path d="M3 21c1.4-4 3.9-6 7.2-6 2 0 3.8.7 5.2 2" fill="none" stroke="currentColor" stroke-width="2" stroke-linecap="round"/>
    <path d="M18 8v8M14 12h8" fill="none" stroke="currentColor" stroke-width="2" stroke-linecap="round"/>
  </symbol>
  <symbol id="users" viewBox="0 0 24 24">
    <path d="M8 12a4 4 0 1 0 0-8 4 4 0 0 0 0 8zM2.5 21c1-4 3-6 5.5-6s4.6 2 5.5 6M17 11a3 3 0 1 0 0-6M15.2 15.2c2.5.3 4.2 2.1 5.3 5.8" fill="none" stroke="currentColor" stroke-width="2" stroke-linecap="round"/>
  </symbol>
  <symbol id="camera" viewBox="0 0 24 24">
    <path d="M5 7h3l1.7-2h4.6L16 7h3a2 2 0 0 1 2 2v9a2 2 0 0 1-2 2H5a2 2 0 0 1-2-2V9a2 2 0 0 1 2-2z" fill="none" stroke="currentColor" stroke-width="2" stroke-linejoin="round"/>
    <circle cx="12" cy="13" r="4" fill="none" stroke="currentColor" stroke-width="2"/>
  </symbol>
  <symbol id="shield" viewBox="0 0 24 24">
    <path d="M12 3 20 6v6.2c0 4.7-3 7.8-8 9.8-5-2-8-5.1-8-9.8V6l8-3z" fill="none" stroke="currentColor" stroke-width="2" stroke-linejoin="round"/>
    <path d="m8.5 12 2.4 2.4 4.8-5" fill="none" stroke="currentColor" stroke-width="2" stroke-linecap="round" stroke-linejoin="round"/>
  </symbol>
  <symbol id="mask" viewBox="0 0 24 24">
    <path d="M4 7c2.5-1 5.2-1.5 8-1.5S17.5 6 20 7v5.5c0 4.2-3.2 7-8 7s-8-2.8-8-7V7z" fill="none" stroke="currentColor" stroke-width="2" stroke-linejoin="round"/>
    <path d="M8 11h.01M16 11h.01M9 15c2 1.2 4 1.2 6 0" fill="none" stroke="currentColor" stroke-width="2" stroke-linecap="round"/>
  </symbol>
  <symbol id="file" viewBox="0 0 24 24">
    <path d="M6 3h8l4 4v14H6V3z" fill="none" stroke="currentColor" stroke-width="2" stroke-linejoin="round"/>
    <path d="M14 3v5h5M9 13h6M9 17h6" fill="none" stroke="currentColor" stroke-width="2" stroke-linecap="round"/>
  </symbol>
  <symbol id="book" viewBox="0 0 24 24">
    <path d="M5 4h11a3 3 0 0 1 3 3v13H8a3 3 0 0 0-3-3V4z" fill="none" stroke="currentColor" stroke-width="2" stroke-linejoin="round"/>
    <path d="M5 17V7a3 3 0 0 1 3-3M9 8h6M9 12h6" fill="none" stroke="currentColor" stroke-width="2" stroke-linecap="round"/>
  </symbol>
  <symbol id="mail" viewBox="0 0 24 24">
    <rect x="3" y="5" width="18" height="14" rx="2" fill="none" stroke="currentColor" stroke-width="2"/>
    <path d="m4 7 8 6 8-6" fill="none" stroke="currentColor" stroke-width="2" stroke-linecap="round" stroke-linejoin="round"/>
  </symbol>
  <symbol id="bell" viewBox="0 0 24 24">
    <path d="M18 10a6 6 0 1 0-12 0c0 7-3 7-3 9h18c0-2-3-2-3-9zM10 21h4" fill="none" stroke="currentColor" stroke-width="2" stroke-linecap="round" stroke-linejoin="round"/>
  </symbol>
  <symbol id="trend" viewBox="0 0 24 24">
    <path d="m4 16 5-5 4 4 7-8" fill="none" stroke="currentColor" stroke-width="2" stroke-linecap="round" stroke-linejoin="round"/>
    <path d="M16 7h4v4M4 21h16" fill="none" stroke="currentColor" stroke-width="2" stroke-linecap="round" stroke-linejoin="round"/>
  </symbol>
  <symbol id="heart" viewBox="0 0 24 24">
    <path d="M12 21S4 16.2 4 9.8A4.7 4.7 0 0 1 12 6a4.7 4.7 0 0 1 8 3.8C20 16.2 12 21 12 21z" fill="none" stroke="currentColor" stroke-width="2" stroke-linejoin="round"/>
  </symbol>
  <symbol id="check" viewBox="0 0 24 24">
    <path d="m5 12 4.5 4.5L19 7" fill="none" stroke="currentColor" stroke-width="2.5" stroke-linecap="round" stroke-linejoin="round"/>
  </symbol>
  <symbol id="phone" viewBox="0 0 24 24">
    <path d="M7 4 5 6c-1 1-.6 5.5 4.2 10.3C14 21.1 18.5 21.5 19.5 20.5l2-2-4-4-2 2c-1.3-.5-2.7-1.4-4-2.7s-2.2-2.7-2.7-4l2-2L7 4z" fill="none" stroke="currentColor" stroke-width="2" stroke-linejoin="round"/>
  </symbol>
  <symbol id="home" viewBox="0 0 24 24">
    <path d="m3 11 9-8 9 8v10h-6v-6H9v6H3V11z" fill="none" stroke="currentColor" stroke-width="2" stroke-linejoin="round"/>
  </symbol>
  <symbol id="pin" viewBox="0 0 24 24">
    <path d="M12 22s7-6.2 7-12A7 7 0 1 0 5 10c0 5.8 7 12 7 12z" fill="none" stroke="currentColor" stroke-width="2"/>
    <circle cx="12" cy="10" r="2.5" fill="none" stroke="currentColor" stroke-width="2"/>
  </symbol>
  <symbol id="eye" viewBox="0 0 24 24">
    <path d="M2.5 12s3.5-6 9.5-6 9.5 6 9.5 6-3.5 6-9.5 6-9.5-6-9.5-6z" fill="none" stroke="currentColor" stroke-width="2"/>
    <circle cx="12" cy="12" r="3" fill="none" stroke="currentColor" stroke-width="2"/>
  </symbol>
  <symbol id="comment" viewBox="0 0 24 24">
    <path d="M4 5h16v11H8l-4 4V5z" fill="none" stroke="currentColor" stroke-width="2" stroke-linejoin="round"/>
  </symbol>
  <symbol id="share" viewBox="0 0 24 24">
    <circle cx="18" cy="5" r="3" fill="none" stroke="currentColor" stroke-width="2"/>
    <circle cx="6" cy="12" r="3" fill="none" stroke="currentColor" stroke-width="2"/>
    <circle cx="18" cy="19" r="3" fill="none" stroke="currentColor" stroke-width="2"/>
    <path d="m8.7 10.7 6.6-4.4M8.7 13.3l6.6 4.4" fill="none" stroke="currentColor" stroke-width="2" stroke-linecap="round"/>
  </symbol>
  <symbol id="search" viewBox="0 0 24 24">
    <circle cx="11" cy="11" r="7" fill="none" stroke="currentColor" stroke-width="2"/>
    <path d="m16.5 16.5 4 4" fill="none" stroke="currentColor" stroke-width="2" stroke-linecap="round"/>
  </symbol>
  <symbol id="filter" viewBox="0 0 24 24">
    <path d="M4 6h16M7 12h10M10 18h4" fill="none" stroke="currentColor" stroke-width="2" stroke-linecap="round"/>
  </symbol>
  <symbol id="upload" viewBox="0 0 24 24">
    <path d="M12 16V4M7 9l5-5 5 5M5 20h14" fill="none" stroke="currentColor" stroke-width="2" stroke-linecap="round" stroke-linejoin="round"/>
  </symbol>
  <symbol id="arrow" viewBox="0 0 24 24">
    <path d="M5 12h14M13 6l6 6-6 6" fill="none" stroke="currentColor" stroke-width="2" stroke-linecap="round" stroke-linejoin="round"/>
  </symbol>
  <symbol id="back" viewBox="0 0 24 24">
    <path d="M19 12H5M11 6l-6 6 6 6" fill="none" stroke="currentColor" stroke-width="2" stroke-linecap="round" stroke-linejoin="round"/>
  </symbol>
  <symbol id="menu" viewBox="0 0 24 24">
    <path d="M4 7h16M4 12h16M4 17h16" fill="none" stroke="currentColor" stroke-width="2" stroke-linecap="round"/>
  </symbol>
  <symbol id="x" viewBox="0 0 24 24">
    <path d="m6 6 12 12M18 6 6 18" fill="none" stroke="currentColor" stroke-width="2" stroke-linecap="round"/>
  </symbol>
  <symbol id="more" viewBox="0 0 24 24">
    <circle cx="5" cy="12" r="1.8" fill="currentColor"/>
    <circle cx="12" cy="12" r="1.8" fill="currentColor"/>
    <circle cx="19" cy="12" r="1.8" fill="currentColor"/>
  </symbol>
  <symbol id="settings" viewBox="0 0 24 24">
    <path d="M12 8a4 4 0 1 1 0 8 4 4 0 0 1 0-8z" fill="none" stroke="currentColor" stroke-width="2"/>
    <path d="m4 12-1.2-2.1 2-3.4 2.4.5 1.7-1L10 3h4l1.1 3 1.7 1 2.4-.5 2 3.4L20 12l1.2 2.1-2 3.4-2.4-.5-1.7 1L14 21h-4l-1.1-3-1.7-1-2.4.5-2-3.4L4 12z" fill="none" stroke="currentColor" stroke-width="2" stroke-linejoin="round"/>
  </symbol>
  <symbol id="logout" viewBox="0 0 24 24">
    <path d="M10 5H5v14h5M14 8l4 4-4 4M8 12h10" fill="none" stroke="currentColor" stroke-width="2" stroke-linecap="round" stroke-linejoin="round"/>
  </symbol>
  <symbol id="flag" viewBox="0 0 24 24">
    <path d="M5 21V4M5 4h12l-1.5 4L17 12H5" fill="none" stroke="currentColor" stroke-width="2" stroke-linejoin="round"/>
  </symbol>
  <symbol id="map" viewBox="0 0 24 24">
    <path d="m4 6 5-2 6 2 5-2v14l-5 2-6-2-5 2V6zM9 4v14M15 6v14" fill="none" stroke="currentColor" stroke-width="2" stroke-linejoin="round"/>
  </symbol>
  <symbol id="scale" viewBox="0 0 24 24">
    <path d="M12 4v17M5 7h14M7 7l-4 7h8L7 7zM17 7l-4 7h8l-4-7z" fill="none" stroke="currentColor" stroke-width="2" stroke-linejoin="round"/>
  </symbol>
</svg>
