<svg xmlns="http://www.w3.org/2000/svg" width="2600" height="343" viewBox="0 0 2600 343" fill="none">
  <defs>
    <filter id="softShadow" x="-3%" y="-8%" width="106%" height="116%" color-interpolation-filters="sRGB">
      <feDropShadow dx="0" dy="8" stdDeviation="10" flood-color="#003E9C" flood-opacity="0.18"/>
    </filter>
    <linearGradient id="blueGrad" x1="0" y1="0" x2="0" y2="1">
      <stop offset="0" stop-color="#1F70FF"/>
      <stop offset="0.45" stop-color="#0047D0"/>
      <stop offset="1" stop-color="#00329C"/>
    </linearGradient>
    <linearGradient id="redGrad" x1="0" y1="0" x2="0" y2="1">
      <stop offset="0" stop-color="#FF4A3C"/>
      <stop offset="0.55" stop-color="#EA1F25"/>
      <stop offset="1" stop-color="#C90000"/>
    </linearGradient>
    <linearGradient id="whiteGrad" x1="0" y1="0" x2="0" y2="1">
      <stop offset="0" stop-color="#FFFFFF"/>
      <stop offset="0.65" stop-color="#F8FBFF"/>
      <stop offset="1" stop-color="#E8EEF7"/>
    </linearGradient>
  </defs>
  <g filter="url(#softShadow)">
    <path d="M -40.0,70.3 L -28.8,72.7 L -17.6,75.1 L -6.4,77.4 L 4.9,79.7 L 16.1,81.9 L 27.3,84.1 L 38.5,86.2 L 49.7,88.2 L 60.9,90.2 L 72.1,92.1 L 83.3,93.9 L 94.6,95.6 L 105.8,97.3 L 117.0,98.9 L 128.2,100.4 L 139.4,101.8 L 150.6,103.1 L 161.8,104.4 L 173.1,105.5 L 184.3,106.6 L 195.5,107.6 L 206.7,108.5 L 217.9,109.3 L 229.1,110.0 L 240.3,110.6 L 251.5,111.1 L 262.8,111.6 L 274.0,111.9 L 285.2,112.2 L 296.4,112.4 L 307.6,112.5 L 318.8,112.5 L 330.0,112.5 L 341.3,112.4 L 352.5,112.1 L 363.7,111.9 L 374.9,111.5 L 386.1,111.1 L 397.3,110.6 L 408.5,110.1 L 419.7,109.5 L 431.0,108.8 L 442.2,108.1 L 453.4,107.3 L 464.6,106.5 L 475.8,105.6 L 487.0,104.7 L 498.2,103.7 L 509.5,102.7 L 520.7,101.7 L 531.9,100.6 L 543.1,99.5 L 554.3,98.4 L 565.5,97.2 L 576.7,96.1 L 587.9,94.9 L 599.2,93.7 L 610.4,92.5 L 621.6,91.2 L 632.8,90.0 L 644.0,88.7 L 655.2,87.5 L 666.4,86.2 L 677.7,85.0 L 688.9,83.7 L 700.1,82.5 L 711.3,81.2 L 722.5,80.0 L 733.7,78.7 L 744.9,77.5 L 756.2,76.3 L 767.4,75.1 L 778.6,73.8 L 789.8,72.6 L 801.0,71.5 L 812.2,70.3 L 823.4,69.1 L 834.6,68.0 L 845.9,66.8 L 857.1,65.7 L 868.3,64.6 L 879.5,63.5 L 890.7,62.4 L 901.9,61.3 L 913.1,60.2 L 924.4,59.1 L 935.6,58.1 L 946.8,57.0 L 958.0,56.0 L 969.2,54.9 L 980.4,53.9 L 991.6,52.9 L 1002.8,51.9 L 1014.1,50.8 L 1025.3,49.8 L 1036.5,48.8 L 1047.7,47.8 L 1058.9,46.8 L 1070.1,45.8 L 1081.3,44.7 L 1092.6,43.7 L 1103.8,42.7 L 1115.0,41.7 L 1126.2,40.6 L 1137.4,39.6 L 1148.6,38.6 L 1159.8,37.5 L 1171.0,36.5 L 1182.3,35.4 L 1193.5,34.3 L 1204.7,33.3 L 1215.9,32.2 L 1227.1,31.1 L 1238.3,30.1 L 1249.5,29.0 L 1260.8,27.9 L 1272.0,26.8 L 1283.2,25.8 L 1294.4,24.7 L 1305.6,23.6 L 1316.8,22.5 L 1328.0,21.5 L 1339.2,20.4 L 1350.5,19.3 L 1361.7,18.3 L 1372.9,17.3 L 1384.1,16.2 L 1395.3,15.2 L 1406.5,14.3 L 1417.7,13.3 L 1429.0,12.4 L 1440.2,11.4 L 1451.4,10.6 L 1462.6,9.7 L 1473.8,8.9 L 1485.0,8.1 L 1496.2,7.3 L 1507.4,6.6 L 1518.7,6.0 L 1529.9,5.3 L 1541.1,4.8 L 1552.3,4.3 L 1563.5,3.8 L 1574.7,3.4 L 1585.9,3.0 L 1597.2,2.7 L 1608.4,2.5 L 1619.6,2.3 L 1630.8,2.2 L 1642.0,2.2 L 1653.2,2.3 L 1664.4,2.4 L 1675.6,2.6 L 1686.9,2.9 L 1698.1,3.2 L 1709.3,3.6 L 1720.5,4.1 L 1731.7,4.7 L 1742.9,5.4 L 1754.1,6.2 L 1765.4,7.0 L 1776.6,7.9 L 1787.8,9.0 L 1799.0,10.0 L 1810.2,11.2 L 1821.4,12.5 L 1832.6,13.8 L 1843.8,15.2 L 1855.1,16.8 L 1866.3,18.3 L 1877.5,20.0 L 1888.7,21.7 L 1899.9,23.5 L 1911.1,25.4 L 1922.3,27.4 L 1933.6,29.4 L 1944.8,31.4 L 1956.0,33.6 L 1967.2,35.8 L 1978.4,38.0 L 1989.6,40.3 L 2000.8,42.6 L 2012.1,45.0 L 2023.3,47.4 L 2034.5,49.9 L 2045.7,52.4 L 2056.9,54.9 L 2068.1,57.4 L 2079.3,60.0 L 2090.5,62.5 L 2101.8,65.1 L 2113.0,67.7 L 2124.2,70.2 L 2135.4,72.8 L 2146.6,75.3 L 2157.8,77.9 L 2169.0,80.4 L 2180.3,82.9 L 2191.5,85.3 L 2202.7,87.7 L 2213.9,90.1 L 2225.1,92.4 L 2236.3,94.7 L 2247.5,96.9 L 2258.7,99.1 L 2270.0,101.2 L 2281.2,103.2 L 2292.4,105.2 L 2303.6,107.0 L 2314.8,108.8 L 2326.0,110.6 L 2337.2,112.2 L 2348.5,113.7 L 2359.7,115.2 L 2370.9,116.5 L 2382.1,117.8 L 2393.3,118.9 L 2404.5,120.0 L 2415.7,120.9 L 2426.9,121.8 L 2438.2,122.5 L 2449.4,123.1 L 2460.6,123.6 L 2471.8,124.0 L 2483.0,124.3 L 2494.2,124.5 L 2505.4,124.6 L 2516.7,124.5 L 2527.9,124.4 L 2539.1,124.1 L 2550.3,123.7 L 2561.5,123.2 L 2572.7,122.6 L 2583.9,121.9 L 2595.1,121.1 L 2606.4,120.2 L 2617.6,119.2 L 2628.8,118.1 L 2640.0,116.9 L 2640.0,188.9 L 2628.8,190.1 L 2617.6,191.2 L 2606.4,192.2 L 2595.1,193.1 L 2583.9,193.9 L 2572.7,194.6 L 2561.5,195.2 L 2550.3,195.7 L 2539.1,196.1 L 2527.9,196.4 L 2516.7,196.5 L 2505.4,196.6 L 2494.2,196.5 L 2483.0,196.3 L 2471.8,196.0 L 2460.6,195.6 L 2449.4,195.1 L 2438.2,194.5 L 2426.9,193.8 L 2415.7,192.9 L 2404.5,192.0 L 2393.3,190.9 L 2382.1,189.8 L 2370.9,188.5 L 2359.7,187.2 L 2348.5,185.7 L 2337.2,184.2 L 2326.0,182.6 L 2314.8,180.8 L 2303.6,179.0 L 2292.4,177.2 L 2281.2,175.2 L 2270.0,173.2 L 2258.7,171.1 L 2247.5,168.9 L 2236.3,166.7 L 2225.1,164.4 L 2213.9,162.1 L 2202.7,159.7 L 2191.5,157.3 L 2180.3,154.9 L 2169.0,152.4 L 2157.8,149.9 L 2146.6,147.3 L 2135.4,144.8 L 2124.2,142.2 L 2113.0,139.7 L 2101.8,137.1 L 2090.5,134.5 L 2079.3,132.0 L 2068.1,129.4 L 2056.9,126.9 L 2045.7,124.4 L 2034.5,121.9 L 2023.3,119.4 L 2012.1,117.0 L 2000.8,114.6 L 1989.6,112.3 L 1978.4,110.0 L 1967.2,107.8 L 1956.0,105.6 L 1944.8,103.4 L 1933.6,101.4 L 1922.3,99.4 L 1911.1,97.4 L 1899.9,95.5 L 1888.7,93.7 L 1877.5,92.0 L 1866.3,90.3 L 1855.1,88.8 L 1843.8,87.2 L 1832.6,85.8 L 1821.4,84.5 L 1810.2,83.2 L 1799.0,82.0 L 1787.8,81.0 L 1776.6,79.9 L 1765.4,79.0 L 1754.1,78.2 L 1742.9,77.4 L 1731.7,76.7 L 1720.5,76.1 L 1709.3,75.6 L 1698.1,75.2 L 1686.9,74.9 L 1675.6,74.6 L 1664.4,74.4 L 1653.2,74.3 L 1642.0,74.2 L 1630.8,74.2 L 1619.6,74.3 L 1608.4,74.5 L 1597.2,74.7 L 1585.9,75.0 L 1574.7,75.4 L 1563.5,75.8 L 1552.3,76.3 L 1541.1,76.8 L 1529.9,77.3 L 1518.7,78.0 L 1507.4,78.6 L 1496.2,79.3 L 1485.0,80.1 L 1473.8,80.9 L 1462.6,81.7 L 1451.4,82.6 L 1440.2,83.4 L 1429.0,84.4 L 1417.7,85.3 L 1406.5,86.3 L 1395.3,87.2 L 1384.1,88.2 L 1372.9,89.3 L 1361.7,90.3 L 1350.5,91.3 L 1339.2,92.4 L 1328.0,93.5 L 1316.8,94.5 L 1305.6,95.6 L 1294.4,96.7 L 1283.2,97.8 L 1272.0,98.8 L 1260.8,99.9 L 1249.5,101.0 L 1238.3,102.1 L 1227.1,103.1 L 1215.9,104.2 L 1204.7,105.3 L 1193.5,106.3 L 1182.3,107.4 L 1171.0,108.5 L 1159.8,109.5 L 1148.6,110.6 L 1137.4,111.6 L 1126.2,112.6 L 1115.0,113.7 L 1103.8,114.7 L 1092.6,115.7 L 1081.3,116.7 L 1070.1,117.8 L 1058.9,118.8 L 1047.7,119.8 L 1036.5,120.8 L 1025.3,121.8 L 1014.1,122.8 L 1002.8,123.9 L 991.6,124.9 L 980.4,125.9 L 969.2,126.9 L 958.0,128.0 L 946.8,129.0 L 935.6,130.1 L 924.4,131.1 L 913.1,132.2 L 901.9,133.3 L 890.7,134.4 L 879.5,135.5 L 868.3,136.6 L 857.1,137.7 L 845.9,138.8 L 834.6,140.0 L 823.4,141.1 L 812.2,142.3 L 801.0,143.5 L 789.8,144.6 L 778.6,145.8 L 767.4,147.1 L 756.2,148.3 L 744.9,149.5 L 733.7,150.7 L 722.5,152.0 L 711.3,153.2 L 700.1,154.5 L 688.9,155.7 L 677.7,157.0 L 666.4,158.2 L 655.2,159.5 L 644.0,160.7 L 632.8,162.0 L 621.6,163.2 L 610.4,164.5 L 599.2,165.7 L 587.9,166.9 L 576.7,168.1 L 565.5,169.2 L 554.3,170.4 L 543.1,171.5 L 531.9,172.6 L 520.7,173.7 L 509.5,174.7 L 498.2,175.7 L 487.0,176.7 L 475.8,177.6 L 464.6,178.5 L 453.4,179.3 L 442.2,180.1 L 431.0,180.8 L 419.7,181.5 L 408.5,182.1 L 397.3,182.6 L 386.1,183.1 L 374.9,183.5 L 363.7,183.9 L 352.5,184.1 L 341.3,184.4 L 330.0,184.5 L 318.8,184.5 L 307.6,184.5 L 296.4,184.4 L 285.2,184.2 L 274.0,183.9 L 262.8,183.6 L 251.5,183.1 L 240.3,182.6 L 229.1,182.0 L 217.9,181.3 L 206.7,180.5 L 195.5,179.6 L 184.3,178.6 L 173.1,177.5 L 161.8,176.4 L 150.6,175.1 L 139.4,173.8 L 128.2,172.4 L 117.0,170.9 L 105.8,169.3 L 94.6,167.6 L 83.3,165.9 L 72.1,164.1 L 60.9,162.2 L 49.7,160.2 L 38.5,158.2 L 27.3,156.1 L 16.1,153.9 L 4.9,151.7 L -6.4,149.4 L -17.6,147.1 L -28.8,144.7 L -40.0,142.3 Z" fill="url(#whiteGrad)" opacity="0.98"/>
    <path d="M -40.0,142.3 L -28.8,144.7 L -17.6,147.1 L -6.4,149.4 L 4.9,151.7 L 16.1,153.9 L 27.3,156.1 L 38.5,158.2 L 49.7,160.2 L 60.9,162.2 L 72.1,164.1 L 83.3,165.9 L 94.6,167.6 L 105.8,169.3 L 117.0,170.9 L 128.2,172.4 L 139.4,173.8 L 150.6,175.1 L 161.8,176.4 L 173.1,177.5 L 184.3,178.6 L 195.5,179.6 L 206.7,180.5 L 217.9,181.3 L 229.1,182.0 L 240.3,182.6 L 251.5,183.1 L 262.8,183.6 L 274.0,183.9 L 285.2,184.2 L 296.4,184.4 L 307.6,184.5 L 318.8,184.5 L 330.0,184.5 L 341.3,184.4 L 352.5,184.1 L 363.7,183.9 L 374.9,183.5 L 386.1,183.1 L 397.3,182.6 L 408.5,182.1 L 419.7,181.5 L 431.0,180.8 L 442.2,180.1 L 453.4,179.3 L 464.6,178.5 L 475.8,177.6 L 487.0,176.7 L 498.2,175.7 L 509.5,174.7 L 520.7,173.7 L 531.9,172.6 L 543.1,171.5 L 554.3,170.4 L 565.5,169.2 L 576.7,168.1 L 587.9,166.9 L 599.2,165.7 L 610.4,164.5 L 621.6,163.2 L 632.8,162.0 L 644.0,160.7 L 655.2,159.5 L 666.4,158.2 L 677.7,157.0 L 688.9,155.7 L 700.1,154.5 L 711.3,153.2 L 722.5,152.0 L 733.7,150.7 L 744.9,149.5 L 756.2,148.3 L 767.4,147.1 L 778.6,145.8 L 789.8,144.6 L 801.0,143.5 L 812.2,142.3 L 823.4,141.1 L 834.6,140.0 L 845.9,138.8 L 857.1,137.7 L 868.3,136.6 L 879.5,135.5 L 890.7,134.4 L 901.9,133.3 L 913.1,132.2 L 924.4,131.1 L 935.6,130.1 L 946.8,129.0 L 958.0,128.0 L 969.2,126.9 L 980.4,125.9 L 991.6,124.9 L 1002.8,123.9 L 1014.1,122.8 L 1025.3,121.8 L 1036.5,120.8 L 1047.7,119.8 L 1058.9,118.8 L 1070.1,117.8 L 1081.3,116.7 L 1092.6,115.7 L 1103.8,114.7 L 1115.0,113.7 L 1126.2,112.6 L 1137.4,111.6 L 1148.6,110.6 L 1159.8,109.5 L 1171.0,108.5 L 1182.3,107.4 L 1193.5,106.3 L 1204.7,105.3 L 1215.9,104.2 L 1227.1,103.1 L 1238.3,102.1 L 1249.5,101.0 L 1260.8,99.9 L 1272.0,98.8 L 1283.2,97.8 L 1294.4,96.7 L 1305.6,95.6 L 1316.8,94.5 L 1328.0,93.5 L 1339.2,92.4 L 1350.5,91.3 L 1361.7,90.3 L 1372.9,89.3 L 1384.1,88.2 L 1395.3,87.2 L 1406.5,86.3 L 1417.7,85.3 L 1429.0,84.4 L 1440.2,83.4 L 1451.4,82.6 L 1462.6,81.7 L 1473.8,80.9 L 1485.0,80.1 L 1496.2,79.3 L 1507.4,78.6 L 1518.7,78.0 L 1529.9,77.3 L 1541.1,76.8 L 1552.3,76.3 L 1563.5,75.8 L 1574.7,75.4 L 1585.9,75.0 L 1597.2,74.7 L 1608.4,74.5 L 1619.6,74.3 L 1630.8,74.2 L 1642.0,74.2 L 1653.2,74.3 L 1664.4,74.4 L 1675.6,74.6 L 1686.9,74.9 L 1698.1,75.2 L 1709.3,75.6 L 1720.5,76.1 L 1731.7,76.7 L 1742.9,77.4 L 1754.1,78.2 L 1765.4,79.0 L 1776.6,79.9 L 1787.8,81.0 L 1799.0,82.0 L 1810.2,83.2 L 1821.4,84.5 L 1832.6,85.8 L 1843.8,87.2 L 1855.1,88.8 L 1866.3,90.3 L 1877.5,92.0 L 1888.7,93.7 L 1899.9,95.5 L 1911.1,97.4 L 1922.3,99.4 L 1933.6,101.4 L 1944.8,103.4 L 1956.0,105.6 L 1967.2,107.8 L 1978.4,110.0 L 1989.6,112.3 L 2000.8,114.6 L 2012.1,117.0 L 2023.3,119.4 L 2034.5,121.9 L 2045.7,124.4 L 2056.9,126.9 L 2068.1,129.4 L 2079.3,132.0 L 2090.5,134.5 L 2101.8,137.1 L 2113.0,139.7 L 2124.2,142.2 L 2135.4,144.8 L 2146.6,147.3 L 2157.8,149.9 L 2169.0,152.4 L 2180.3,154.9 L 2191.5,157.3 L 2202.7,159.7 L 2213.9,162.1 L 2225.1,164.4 L 2236.3,166.7 L 2247.5,168.9 L 2258.7,171.1 L 2270.0,173.2 L 2281.2,175.2 L 2292.4,177.2 L 2303.6,179.0 L 2314.8,180.8 L 2326.0,182.6 L 2337.2,184.2 L 2348.5,185.7 L 2359.7,187.2 L 2370.9,188.5 L 2382.1,189.8 L 2393.3,190.9 L 2404.5,192.0 L 2415.7,192.9 L 2426.9,193.8 L 2438.2,194.5 L 2449.4,195.1 L 2460.6,195.6 L 2471.8,196.0 L 2483.0,196.3 L 2494.2,196.5 L 2505.4,196.6 L 2516.7,196.5 L 2527.9,196.4 L 2539.1,196.1 L 2550.3,195.7 L 2561.5,195.2 L 2572.7,194.6 L 2583.9,193.9 L 2595.1,193.1 L 2606.4,192.2 L 2617.6,191.2 L 2628.8,190.1 L 2640.0,188.9 L 2640.0,260.9 L 2628.8,262.1 L 2617.6,263.2 L 2606.4,264.2 L 2595.1,265.1 L 2583.9,265.9 L 2572.7,266.6 L 2561.5,267.2 L 2550.3,267.7 L 2539.1,268.1 L 2527.9,268.4 L 2516.7,268.5 L 2505.4,268.6 L 2494.2,268.5 L 2483.0,268.3 L 2471.8,268.0 L 2460.6,267.6 L 2449.4,267.1 L 2438.2,266.5 L 2426.9,265.8 L 2415.7,264.9 L 2404.5,264.0 L 2393.3,262.9 L 2382.1,261.8 L 2370.9,260.5 L 2359.7,259.2 L 2348.5,257.7 L 2337.2,256.2 L 2326.0,254.6 L 2314.8,252.8 L 2303.6,251.0 L 2292.4,249.2 L 2281.2,247.2 L 2270.0,245.2 L 2258.7,243.1 L 2247.5,240.9 L 2236.3,238.7 L 2225.1,236.4 L 2213.9,234.1 L 2202.7,231.7 L 2191.5,229.3 L 2180.3,226.9 L 2169.0,224.4 L 2157.8,221.9 L 2146.6,219.3 L 2135.4,216.8 L 2124.2,214.2 L 2113.0,211.7 L 2101.8,209.1 L 2090.5,206.5 L 2079.3,204.0 L 2068.1,201.4 L 2056.9,198.9 L 2045.7,196.4 L 2034.5,193.9 L 2023.3,191.4 L 2012.1,189.0 L 2000.8,186.6 L 1989.6,184.3 L 1978.4,182.0 L 1967.2,179.8 L 1956.0,177.6 L 1944.8,175.4 L 1933.6,173.4 L 1922.3,171.4 L 1911.1,169.4 L 1899.9,167.5 L 1888.7,165.7 L 1877.5,164.0 L 1866.3,162.3 L 1855.1,160.8 L 1843.8,159.2 L 1832.6,157.8 L 1821.4,156.5 L 1810.2,155.2 L 1799.0,154.0 L 1787.8,153.0 L 1776.6,151.9 L 1765.4,151.0 L 1754.1,150.2 L 1742.9,149.4 L 1731.7,148.7 L 1720.5,148.1 L 1709.3,147.6 L 1698.1,147.2 L 1686.9,146.9 L 1675.6,146.6 L 1664.4,146.4 L 1653.2,146.3 L 1642.0,146.2 L 1630.8,146.2 L 1619.6,146.3 L 1608.4,146.5 L 1597.2,146.7 L 1585.9,147.0 L 1574.7,147.4 L 1563.5,147.8 L 1552.3,148.3 L 1541.1,148.8 L 1529.9,149.3 L 1518.7,150.0 L 1507.4,150.6 L 1496.2,151.3 L 1485.0,152.1 L 1473.8,152.9 L 1462.6,153.7 L 1451.4,154.6 L 1440.2,155.4 L 1429.0,156.4 L 1417.7,157.3 L 1406.5,158.3 L 1395.3,159.2 L 1384.1,160.2 L 1372.9,161.3 L 1361.7,162.3 L 1350.5,163.3 L 1339.2,164.4 L 1328.0,165.5 L 1316.8,166.5 L 1305.6,167.6 L 1294.4,168.7 L 1283.2,169.8 L 1272.0,170.8 L 1260.8,171.9 L 1249.5,173.0 L 1238.3,174.1 L 1227.1,175.1 L 1215.9,176.2 L 1204.7,177.3 L 1193.5,178.3 L 1182.3,179.4 L 1171.0,180.5 L 1159.8,181.5 L 1148.6,182.6 L 1137.4,183.6 L 1126.2,184.6 L 1115.0,185.7 L 1103.8,186.7 L 1092.6,187.7 L 1081.3,188.7 L 1070.1,189.8 L 1058.9,190.8 L 1047.7,191.8 L 1036.5,192.8 L 1025.3,193.8 L 1014.1,194.8 L 1002.8,195.9 L 991.6,196.9 L 980.4,197.9 L 969.2,198.9 L 958.0,200.0 L 946.8,201.0 L 935.6,202.1 L 924.4,203.1 L 913.1,204.2 L 901.9,205.3 L 890.7,206.4 L 879.5,207.5 L 868.3,208.6 L 857.1,209.7 L 845.9,210.8 L 834.6,212.0 L 823.4,213.1 L 812.2,214.3 L 801.0,215.5 L 789.8,216.6 L 778.6,217.8 L 767.4,219.1 L 756.2,220.3 L 744.9,221.5 L 733.7,222.7 L 722.5,224.0 L 711.3,225.2 L 700.1,226.5 L 688.9,227.7 L 677.7,229.0 L 666.4,230.2 L 655.2,231.5 L 644.0,232.7 L 632.8,234.0 L 621.6,235.2 L 610.4,236.5 L 599.2,237.7 L 587.9,238.9 L 576.7,240.1 L 565.5,241.2 L 554.3,242.4 L 543.1,243.5 L 531.9,244.6 L 520.7,245.7 L 509.5,246.7 L 498.2,247.7 L 487.0,248.7 L 475.8,249.6 L 464.6,250.5 L 453.4,251.3 L 442.2,252.1 L 431.0,252.8 L 419.7,253.5 L 408.5,254.1 L 397.3,254.6 L 386.1,255.1 L 374.9,255.5 L 363.7,255.9 L 352.5,256.1 L 341.3,256.4 L 330.0,256.5 L 318.8,256.5 L 307.6,256.5 L 296.4,256.4 L 285.2,256.2 L 274.0,255.9 L 262.8,255.6 L 251.5,255.1 L 240.3,254.6 L 229.1,254.0 L 217.9,253.3 L 206.7,252.5 L 195.5,251.6 L 184.3,250.6 L 173.1,249.5 L 161.8,248.4 L 150.6,247.1 L 139.4,245.8 L 128.2,244.4 L 117.0,242.9 L 105.8,241.3 L 94.6,239.6 L 83.3,237.9 L 72.1,236.1 L 60.9,234.2 L 49.7,232.2 L 38.5,230.2 L 27.3,228.1 L 16.1,225.9 L 4.9,223.7 L -6.4,221.4 L -17.6,219.1 L -28.8,216.7 L -40.0,214.3 Z" fill="url(#blueGrad)"/>
    <path d="M -40.0,214.3 L -28.8,216.7 L -17.6,219.1 L -6.4,221.4 L 4.9,223.7 L 16.1,225.9 L 27.3,228.1 L 38.5,230.2 L 49.7,232.2 L 60.9,234.2 L 72.1,236.1 L 83.3,237.9 L 94.6,239.6 L 105.8,241.3 L 117.0,242.9 L 128.2,244.4 L 139.4,245.8 L 150.6,247.1 L 161.8,248.4 L 173.1,249.5 L 184.3,250.6 L 195.5,251.6 L 206.7,252.5 L 217.9,253.3 L 229.1,254.0 L 240.3,254.6 L 251.5,255.1 L 262.8,255.6 L 274.0,255.9 L 285.2,256.2 L 296.4,256.4 L 307.6,256.5 L 318.8,256.5 L 330.0,256.5 L 341.3,256.4 L 352.5,256.1 L 363.7,255.9 L 374.9,255.5 L 386.1,255.1 L 397.3,254.6 L 408.5,254.1 L 419.7,253.5 L 431.0,252.8 L 442.2,252.1 L 453.4,251.3 L 464.6,250.5 L 475.8,249.6 L 487.0,248.7 L 498.2,247.7 L 509.5,246.7 L 520.7,245.7 L 531.9,244.6 L 543.1,243.5 L 554.3,242.4 L 565.5,241.2 L 576.7,240.1 L 587.9,238.9 L 599.2,237.7 L 610.4,236.5 L 621.6,235.2 L 632.8,234.0 L 644.0,232.7 L 655.2,231.5 L 666.4,230.2 L 677.7,229.0 L 688.9,227.7 L 700.1,226.5 L 711.3,225.2 L 722.5,224.0 L 733.7,222.7 L 744.9,221.5 L 756.2,220.3 L 767.4,219.1 L 778.6,217.8 L 789.8,216.6 L 801.0,215.5 L 812.2,214.3 L 823.4,213.1 L 834.6,212.0 L 845.9,210.8 L 857.1,209.7 L 868.3,208.6 L 879.5,207.5 L 890.7,206.4 L 901.9,205.3 L 913.1,204.2 L 924.4,203.1 L 935.6,202.1 L 946.8,201.0 L 958.0,200.0 L 969.2,198.9 L 980.4,197.9 L 991.6,196.9 L 1002.8,195.9 L 1014.1,194.8 L 1025.3,193.8 L 1036.5,192.8 L 1047.7,191.8 L 1058.9,190.8 L 1070.1,189.8 L 1081.3,188.7 L 1092.6,187.7 L 1103.8,186.7 L 1115.0,185.7 L 1126.2,184.6 L 1137.4,183.6 L 1148.6,182.6 L 1159.8,181.5 L 1171.0,180.5 L 1182.3,179.4 L 1193.5,178.3 L 1204.7,177.3 L 1215.9,176.2 L 1227.1,175.1 L 1238.3,174.1 L 1249.5,173.0 L 1260.8,171.9 L 1272.0,170.8 L 1283.2,169.8 L 1294.4,168.7 L 1305.6,167.6 L 1316.8,166.5 L 1328.0,165.5 L 1339.2,164.4 L 1350.5,163.3 L 1361.7,162.3 L 1372.9,161.3 L 1384.1,160.2 L 1395.3,159.2 L 1406.5,158.3 L 1417.7,157.3 L 1429.0,156.4 L 1440.2,155.4 L 1451.4,154.6 L 1462.6,153.7 L 1473.8,152.9 L 1485.0,152.1 L 1496.2,151.3 L 1507.4,150.6 L 1518.7,150.0 L 1529.9,149.3 L 1541.1,148.8 L 1552.3,148.3 L 1563.5,147.8 L 1574.7,147.4 L 1585.9,147.0 L 1597.2,146.7 L 1608.4,146.5 L 1619.6,146.3 L 1630.8,146.2 L 1642.0,146.2 L 1653.2,146.3 L 1664.4,146.4 L 1675.6,146.6 L 1686.9,146.9 L 1698.1,147.2 L 1709.3,147.6 L 1720.5,148.1 L 1731.7,148.7 L 1742.9,149.4 L 1754.1,150.2 L 1765.4,151.0 L 1776.6,151.9 L 1787.8,153.0 L 1799.0,154.0 L 1810.2,155.2 L 1821.4,156.5 L 1832.6,157.8 L 1843.8,159.2 L 1855.1,160.8 L 1866.3,162.3 L 1877.5,164.0 L 1888.7,165.7 L 1899.9,167.5 L 1911.1,169.4 L 1922.3,171.4 L 1933.6,173.4 L 1944.8,175.4 L 1956.0,177.6 L 1967.2,179.8 L 1978.4,182.0 L 1989.6,184.3 L 2000.8,186.6 L 2012.1,189.0 L 2023.3,191.4 L 2034.5,193.9 L 2045.7,196.4 L 2056.9,198.9 L 2068.1,201.4 L 2079.3,204.0 L 2090.5,206.5 L 2101.8,209.1 L 2113.0,211.7 L 2124.2,214.2 L 2135.4,216.8 L 2146.6,219.3 L 2157.8,221.9 L 2169.0,224.4 L 2180.3,226.9 L 2191.5,229.3 L 2202.7,231.7 L 2213.9,234.1 L 2225.1,236.4 L 2236.3,238.7 L 2247.5,240.9 L 2258.7,243.1 L 2270.0,245.2 L 2281.2,247.2 L 2292.4,249.2 L 2303.6,251.0 L 2314.8,252.8 L 2326.0,254.6 L 2337.2,256.2 L 2348.5,257.7 L 2359.7,259.2 L 2370.9,260.5 L 2382.1,261.8 L 2393.3,262.9 L 2404.5,264.0 L 2415.7,264.9 L 2426.9,265.8 L 2438.2,266.5 L 2449.4,267.1 L 2460.6,267.6 L 2471.8,268.0 L 2483.0,268.3 L 2494.2,268.5 L 2505.4,268.6 L 2516.7,268.5 L 2527.9,268.4 L 2539.1,268.1 L 2550.3,267.7 L 2561.5,267.2 L 2572.7,266.6 L 2583.9,265.9 L 2595.1,265.1 L 2606.4,264.2 L 2617.6,263.2 L 2628.8,262.1 L 2640.0,260.9 L 2640.0,332.9 L 2628.8,334.1 L 2617.6,335.2 L 2606.4,336.2 L 2595.1,337.1 L 2583.9,337.9 L 2572.7,338.6 L 2561.5,339.2 L 2550.3,339.7 L 2539.1,340.1 L 2527.9,340.4 L 2516.7,340.5 L 2505.4,340.6 L 2494.2,340.5 L 2483.0,340.3 L 2471.8,340.0 L 2460.6,339.6 L 2449.4,339.1 L 2438.2,338.5 L 2426.9,337.8 L 2415.7,336.9 L 2404.5,336.0 L 2393.3,334.9 L 2382.1,333.8 L 2370.9,332.5 L 2359.7,331.2 L 2348.5,329.7 L 2337.2,328.2 L 2326.0,326.6 L 2314.8,324.8 L 2303.6,323.0 L 2292.4,321.2 L 2281.2,319.2 L 2270.0,317.2 L 2258.7,315.1 L 2247.5,312.9 L 2236.3,310.7 L 2225.1,308.4 L 2213.9,306.1 L 2202.7,303.7 L 2191.5,301.3 L 2180.3,298.9 L 2169.0,296.4 L 2157.8,293.9 L 2146.6,291.3 L 2135.4,288.8 L 2124.2,286.2 L 2113.0,283.7 L 2101.8,281.1 L 2090.5,278.5 L 2079.3,276.0 L 2068.1,273.4 L 2056.9,270.9 L 2045.7,268.4 L 2034.5,265.9 L 2023.3,263.4 L 2012.1,261.0 L 2000.8,258.6 L 1989.6,256.3 L 1978.4,254.0 L 1967.2,251.8 L 1956.0,249.6 L 1944.8,247.4 L 1933.6,245.4 L 1922.3,243.4 L 1911.1,241.4 L 1899.9,239.5 L 1888.7,237.7 L 1877.5,236.0 L 1866.3,234.3 L 1855.1,232.8 L 1843.8,231.2 L 1832.6,229.8 L 1821.4,228.5 L 1810.2,227.2 L 1799.0,226.0 L 1787.8,225.0 L 1776.6,223.9 L 1765.4,223.0 L 1754.1,222.2 L 1742.9,221.4 L 1731.7,220.7 L 1720.5,220.1 L 1709.3,219.6 L 1698.1,219.2 L 1686.9,218.9 L 1675.6,218.6 L 1664.4,218.4 L 1653.2,218.3 L 1642.0,218.2 L 1630.8,218.2 L 1619.6,218.3 L 1608.4,218.5 L 1597.2,218.7 L 1585.9,219.0 L 1574.7,219.4 L 1563.5,219.8 L 1552.3,220.3 L 1541.1,220.8 L 1529.9,221.3 L 1518.7,222.0 L 1507.4,222.6 L 1496.2,223.3 L 1485.0,224.1 L 1473.8,224.9 L 1462.6,225.7 L 1451.4,226.6 L 1440.2,227.4 L 1429.0,228.4 L 1417.7,229.3 L 1406.5,230.3 L 1395.3,231.2 L 1384.1,232.2 L 1372.9,233.3 L 1361.7,234.3 L 1350.5,235.3 L 1339.2,236.4 L 1328.0,237.5 L 1316.8,238.5 L 1305.6,239.6 L 1294.4,240.7 L 1283.2,241.8 L 1272.0,242.8 L 1260.8,243.9 L 1249.5,245.0 L 1238.3,246.1 L 1227.1,247.1 L 1215.9,248.2 L 1204.7,249.3 L 1193.5,250.3 L 1182.3,251.4 L 1171.0,252.5 L 1159.8,253.5 L 1148.6,254.6 L 1137.4,255.6 L 1126.2,256.6 L 1115.0,257.7 L 1103.8,258.7 L 1092.6,259.7 L 1081.3,260.7 L 1070.1,261.8 L 1058.9,262.8 L 1047.7,263.8 L 1036.5,264.8 L 1025.3,265.8 L 1014.1,266.8 L 1002.8,267.9 L 991.6,268.9 L 980.4,269.9 L 969.2,270.9 L 958.0,272.0 L 946.8,273.0 L 935.6,274.1 L 924.4,275.1 L 913.1,276.2 L 901.9,277.3 L 890.7,278.4 L 879.5,279.5 L 868.3,280.6 L 857.1,281.7 L 845.9,282.8 L 834.6,284.0 L 823.4,285.1 L 812.2,286.3 L 801.0,287.5 L 789.8,288.6 L 778.6,289.8 L 767.4,291.1 L 756.2,292.3 L 744.9,293.5 L 733.7,294.7 L 722.5,296.0 L 711.3,297.2 L 700.1,298.5 L 688.9,299.7 L 677.7,301.0 L 666.4,302.2 L 655.2,303.5 L 644.0,304.7 L 632.8,306.0 L 621.6,307.2 L 610.4,308.5 L 599.2,309.7 L 587.9,310.9 L 576.7,312.1 L 565.5,313.2 L 554.3,314.4 L 543.1,315.5 L 531.9,316.6 L 520.7,317.7 L 509.5,318.7 L 498.2,319.7 L 487.0,320.7 L 475.8,321.6 L 464.6,322.5 L 453.4,323.3 L 442.2,324.1 L 431.0,324.8 L 419.7,325.5 L 408.5,326.1 L 397.3,326.6 L 386.1,327.1 L 374.9,327.5 L 363.7,327.9 L 352.5,328.1 L 341.3,328.4 L 330.0,328.5 L 318.8,328.5 L 307.6,328.5 L 296.4,328.4 L 285.2,328.2 L 274.0,327.9 L 262.8,327.6 L 251.5,327.1 L 240.3,326.6 L 229.1,326.0 L 217.9,325.3 L 206.7,324.5 L 195.5,323.6 L 184.3,322.6 L 173.1,321.5 L 161.8,320.4 L 150.6,319.1 L 139.4,317.8 L 128.2,316.4 L 117.0,314.9 L 105.8,313.3 L 94.6,311.6 L 83.3,309.9 L 72.1,308.1 L 60.9,306.2 L 49.7,304.2 L 38.5,302.2 L 27.3,300.1 L 16.1,297.9 L 4.9,295.7 L -6.4,293.4 L -17.6,291.1 L -28.8,288.7 L -40.0,286.3 Z" fill="url(#redGrad)"/>
  </g>
</svg>