<svg xmlns="http://www.w3.org/2000/svg" viewBox="0 0 64 64">
  <rect width="64" height="64" rx="14" fill="#033586"/>
  <path d="M14 10h23c7.2 0 13 5.8 13 13v9h6v11h-6v11H14V10z" fill="none" stroke="#fff" stroke-width="5" stroke-linejoin="round"/>
  <path d="M21 42c7.5 4.8 15.8 6.2 25.6 4.4 4.4-.8 7.8-.2 10.4 1.7-5.4 6-13.9 9-25.4 9-6.8 0-12.8-1.7-17.8-5.1" fill="none" stroke="#fff" stroke-width="5" stroke-linecap="round"/>
  <path d="M32 37s-9-5.7-9-12.1a5.8 5.8 0 0 1 9-4.8 5.8 5.8 0 0 1 9 4.8C41 31.3 32 37 32 37z" fill="#ef2f2c"/>
</svg>
