<svg xmlns="http://www.w3.org/2000/svg" viewBox="0 0 2048 640" role="img" aria-label="Decorative Russian flag ribbon">
  <defs>
    <linearGradient id="whiteBand" x1="205" y1="244" x2="2056" y2="233" gradientUnits="userSpaceOnUse">
      <stop offset="0" stop-color="#fff"/>
      <stop offset=".7" stop-color="#f8fbff"/>
      <stop offset="1" stop-color="#eef3fb"/>
    </linearGradient>
    <linearGradient id="blueBand" x1="329" y1="544" x2="2036" y2="160" gradientUnits="userSpaceOnUse">
      <stop offset="0" stop-color="#082f9a"/>
      <stop offset=".55" stop-color="#0f43c7"/>
      <stop offset="1" stop-color="#061f76"/>
    </linearGradient>
    <linearGradient id="redBand" x1="364" y1="626" x2="2101" y2="279" gradientUnits="userSpaceOnUse">
      <stop offset="0" stop-color="#d90f19"/>
      <stop offset=".55" stop-color="#ef2028"/>
      <stop offset="1" stop-color="#b70711"/>
    </linearGradient>
    <filter id="softShadow" x="-10%" y="-30%" width="120%" height="160%">
      <feDropShadow dx="0" dy="18" stdDeviation="22" flood-color="#0d2f7d" flood-opacity=".18"/>
    </filter>
    <filter id="innerShade" x="-10%" y="-40%" width="120%" height="180%">
      <feGaussianBlur in="SourceAlpha" stdDeviation="10" result="blur"/>
      <feOffset dx="0" dy="-7" result="offset"/>
      <feComposite in="offset" in2="SourceAlpha" operator="arithmetic" k2="-1" k3="1" result="inner"/>
      <feColorMatrix in="inner" type="matrix" values="0 0 0 0 0.02 0 0 0 0 0.13 0 0 0 0 0.4 0 0 0 .22 0"/>
      <feComposite in2="SourceGraphic" operator="over"/>
    </filter>
    <radialGradient id="blueHighlight" cx="0" cy="0" r="1" gradientTransform="matrix(747 -86 28 243 1061 351)" gradientUnits="userSpaceOnUse">
      <stop stop-color="#2b65e8" stop-opacity=".55"/>
      <stop offset=".72" stop-color="#1546bf" stop-opacity=".08"/>
      <stop offset="1" stop-color="#09277e" stop-opacity="0"/>
    </radialGradient>
    <linearGradient id="redHighlight" x1="504" y1="591" x2="1791" y2="365" gradientUnits="userSpaceOnUse">
      <stop offset="0" stop-color="#ff3138" stop-opacity=".85"/>
      <stop offset=".6" stop-color="#f01b25" stop-opacity=".25"/>
      <stop offset="1" stop-color="#b9000c" stop-opacity="0"/>
    </linearGradient>
  </defs>

  <path fill="url(#blueBand)" filter="url(#softShadow)" d="M-74 640c212-24 382-62 545-135 209-94 328-157 542-176 216-19 392 10 594-44 187-50 306-158 515-335v690H-74Z"/>
  <path fill="url(#blueHighlight)" d="M-78 640c241-26 408-66 565-139 212-98 338-158 549-175 217-17 393 12 590-42 173-47 306-150 500-318v674H-78Z"/>

  <path fill="url(#redBand)" filter="url(#innerShade)" d="M-76 728c188-54 350-106 512-192 202-108 326-156 544-166 204-9 402 16 608-20 210-36 357-112 540-252v168c-168 117-326 190-531 225-221 38-450 20-665 43-211 23-334 85-526 170-159 71-311 113-482 146V728Z"/>
  <path fill="url(#redHighlight)" d="M-76 730c186-54 347-105 509-192 203-109 327-157 547-167 205-9 403 17 609-19 208-36 356-112 539-253v77c-174 127-321 197-528 234-219 39-434 19-651 41-211 21-331 77-522 165-164 75-319 126-503 168V730Z"/>

  <path fill="url(#whiteBand)" filter="url(#softShadow)" d="M-76 503c139-16 269-41 400-82 147-45 248-111 400-144 165-36 333-31 501-29 226 3 444 7 657-96 123-60 232-146 339-252v132c-106 103-218 193-347 257-218 108-437 129-676 130-227 1-449-23-665 55-165 60-326 136-609 171V503Z"/>
  <path fill="#fff" opacity=".7" d="M-76 509c149-17 280-42 410-82 147-46 248-111 400-143 166-35 332-30 500-28 229 2 447 5 660-99 119-59 224-141 327-243v43c-110 100-219 181-343 242-217 107-438 127-676 128-227 1-447-22-663 56-166 60-326 135-615 169V509Z"/>
</svg>
