<?xml version="1.0" encoding="UTF-8"?>
<svg version="1.1" xmlns="http://www.w3.org/2000/svg" width="1825" height="420" viewBox="354 112 1825 420">
<path d="M0 0 C6.10268129 2.76253063 10.88558356 7.83429409 15.6484375 12.421875 C16.34066406 13.07414062 17.03289062 13.72640625 17.74609375 14.3984375 C23.20851364 19.6762428 27.90829858 25.49872705 32.6484375 31.421875 C34.14617473 33.25705736 35.64616229 35.09040556 37.1484375 36.921875 C39.37634766 39.63846321 41.59771593 42.35849613 43.79296875 45.1015625 C49.33712481 51.99429706 55.18555918 58.53373979 61.26416016 64.95410156 C62.45967963 66.22173174 63.63956202 67.50407583 64.81640625 68.7890625 C79.6969465 84.50429456 99.15730508 96.30137348 118.61962891 105.45410156 C120.61988991 106.40825735 122.59209456 107.40751215 124.56640625 108.4140625 C134.25997696 113.19523305 144.27759462 116.17927825 154.7109375 118.859375 C155.38351593 119.03299561 156.05609436 119.20661621 156.74905396 119.38549805 C168.76084931 122.4556008 179.53027693 123.58875365 191.8984375 123.546875 C193.63480469 123.55267578 193.63480469 123.55267578 195.40625 123.55859375 C197.08074219 123.55666016 197.08074219 123.55666016 198.7890625 123.5546875 C199.79485352 123.55355957 200.80064453 123.55243164 201.83691406 123.55126953 C204.54287955 123.42673309 207.01280417 123.02921659 209.6484375 122.421875 C208.84486451 118.24329548 208.30535174 115.98494435 205.0234375 113.171875 C197.10231817 109.06462794 189.86759821 107.71592308 181.0859375 106.609375 C171.93970858 105.35549177 163.01674851 103.77216639 154.0859375 101.421875 C153.17835693 101.1849292 152.27077637 100.9479834 151.33569336 100.70385742 C130.11116359 94.8945615 110.0172575 84.38513545 93.1484375 70.359375 C92.2658728 69.63548584 92.2658728 69.63548584 91.36547852 68.89697266 C86.47114741 64.69373103 83.00861281 60.40618473 82.2109375 53.796875 C82.83166687 49.0083913 84.49952491 46.67523419 87.7109375 43.171875 C93.2841024 39.85169166 98.42185838 39.78704095 104.6730957 41.30859375 C106.20483544 41.71311849 107.7342849 42.12638395 109.26171875 42.546875 C110.50470985 42.88174171 110.50470985 42.88174171 111.77281189 43.22337341 C121.99690455 46.01045181 132.12129457 49.13734174 142.24438477 52.26782227 C148.02754946 54.05236397 153.82604649 55.76983438 159.6484375 57.421875 C160.37170227 57.63244537 161.09496704 57.84301575 161.84014893 58.05996704 C175.91157963 62.06235888 189.85594407 61.99141688 204.3984375 61.984375 C225.97931949 62.00690515 246.7321889 63.16819517 267.7109375 68.546875 C268.88503174 68.8454541 270.05912598 69.1440332 271.26879883 69.45166016 C282.25667046 72.37289345 292.44660655 76.44418031 302.6484375 81.421875 C303.40157227 81.78007324 304.15470703 82.13827148 304.93066406 82.50732422 C335.78313926 97.29728874 360.01347083 122.83636656 376.6484375 152.421875 C377.20015625 153.38738281 377.751875 154.35289062 378.3203125 155.34765625 C381.04371725 160.38901505 381.86828302 163.57823934 381.6484375 169.421875 C363.17406564 176.84007712 363.17406564 176.84007712 355.203125 178.71875 C353.00051578 179.32497272 350.97198993 180.05066208 348.84765625 180.87890625 C344.82051092 182.41803262 340.79132803 183.43830251 336.5859375 184.359375 C327.74000332 186.36875203 318.96412156 188.59755272 310.2469635 191.11555481 C303.89188872 192.91973639 297.60404997 194.23428381 291.07421875 195.2109375 C290.10671188 195.3596933 289.13920502 195.5084491 288.14237976 195.66171265 C286.11013598 195.97233515 284.07739543 196.27972367 282.04418945 196.58398438 C278.98421932 197.04337969 275.92670326 197.51706396 272.86914062 197.9921875 C261.78966156 199.68750574 250.85583944 201.04203793 239.6484375 201.421875 C238.37605225 201.46602539 237.10366699 201.51017578 235.79272461 201.55566406 C231.84841694 201.66118089 227.90643879 201.71992869 223.9609375 201.734375 C222.9105127 201.73830261 222.9105127 201.73830261 221.83886719 201.74230957 C192.53280641 201.75386559 163.53486545 196.27660294 136.59765625 184.66015625 C133.54102985 183.37677801 130.45064196 182.24371925 127.3359375 181.109375 C120.33794966 178.44427305 113.8939041 174.99027792 107.36181641 171.36230469 C105.85963374 170.5377952 104.33929767 169.74653942 102.81640625 168.9609375 C77.29957997 155.72432297 54.31940949 134.91497752 36.6484375 112.421875 C35.89175781 111.48214844 35.13507813 110.54242188 34.35546875 109.57421875 C17.63121408 88.43017737 4.40682597 65.07956159 -8.3515625 41.421875 C-10.12634226 38.13678086 -11.90201363 34.8521727 -13.67871094 31.56811523 C-14.81230657 29.47204778 -15.9445288 27.37523683 -17.07519531 25.27758789 C-17.84814941 23.84660767 -17.84814941 23.84660767 -18.63671875 22.38671875 C-19.08926025 21.5474585 -19.54180176 20.70819824 -20.00805664 19.84350586 C-20.95099648 18.14388379 -21.94919807 16.47431689 -22.98608398 14.83032227 C-24.91995788 11.41933246 -24.97095547 9.27587571 -24.3515625 5.421875 C-18.21340515 -1.89886312 -8.82782463 -2.17029576 0 0 Z " fill="#033586" transform="translate(379.3515625,329.578125)"/>
<path d="M0 0 C13.00544925 -0.11644117 26.01077213 -0.20499127 39.01663876 -0.25906086 C45.05742394 -0.28502667 51.09784946 -0.32018451 57.13842773 -0.37719727 C62.98049458 -0.43198411 68.82221801 -0.4615181 74.66452217 -0.47438622 C76.88060465 -0.48354297 79.0966708 -0.50142106 81.3126049 -0.52865028 C97.91918906 -0.72438106 112.62005767 0.92510513 127.5 8.875 C128.48830811 9.38861084 128.48830811 9.38861084 129.49658203 9.91259766 C134.81082382 12.74729679 139.53136712 15.94450488 144 20 C144.80695313 20.69222656 145.61390625 21.38445312 146.4453125 22.09765625 C161.43581655 35.82749099 168.35365581 55.51629075 169.23828125 75.47265625 C169.49668511 86.25112358 168.40087308 95.76610836 165 106 C164.79101074 106.63921387 164.58202148 107.27842773 164.36669922 107.93701172 C157.9786136 126.89072493 146.11330601 141.30784839 128.16796875 150.44140625 C113.41856243 157.35196725 99.43254438 159.32555465 83.16796875 159.1953125 C81.79649566 159.19156977 80.42501984 159.18872878 79.05354309 159.18673706 C75.49112204 159.17919957 71.92887117 159.15963967 68.36651611 159.1373291 C64.71246643 159.11665411 61.05838852 159.10768966 57.40429688 159.09765625 C50.26946277 159.07638148 43.13474266 159.04236949 36 159 C36.01665459 160.69009689 36.01665459 160.69009689 36.03364563 162.41433716 C36.13504411 173.03743509 36.20997634 183.66043471 36.25906086 194.28390694 C36.28514429 199.74546619 36.32052006 205.20663449 36.37719727 210.66796875 C36.43156085 215.93940951 36.46142997 221.21047445 36.47438622 226.48217392 C36.48361822 228.49243969 36.50164642 230.50268509 36.52865028 232.51279068 C36.56499822 235.33075506 36.56994293 238.1471706 36.56762695 240.96533203 C36.58560333 241.79467758 36.60357971 242.62402313 36.62210083 243.47850037 C36.56936537 249.41651303 35.09980122 251.74475831 31 256 C30.67 256.99 30.34 257.98 30 259 C22.57154448 255.8139807 17.02551153 248.29548962 12.00020409 242.15283775 C10.04787306 239.9108916 10.04787306 239.9108916 7.50451088 238.19794655 C2.70885792 234.47634387 -0.06648166 231.44768333 -0.90849686 225.41898727 C-1.3651057 219.53260609 -1.2380128 213.6494043 -1.13525391 207.75146484 C-1.13243074 205.48401007 -1.13402125 203.21654616 -1.13967896 200.94909668 C-1.14254168 194.81271403 -1.08385853 188.67829635 -1.01393938 182.54236937 C-0.95131596 176.12296297 -0.94554343 169.70350872 -0.9336853 163.28384399 C-0.90616112 152.51515378 -0.84375237 141.74732019 -0.75439453 130.97900391 C-0.66248665 119.89180064 -0.59176082 108.80479288 -0.54931641 97.71728516 C-0.54668917 97.03290341 -0.54406194 96.34852166 -0.54135509 95.64340107 C-0.52830392 92.20977225 -0.51566703 88.77614205 -0.50323606 85.34251094 C-0.39970889 56.89451318 -0.22295395 28.44729521 0 0 Z " fill="#033685" transform="translate(421,113)"/>
<path d="M0 0 C1.99244785 -0.3719368 1.99244785 -0.3719368 4.48573303 -0.36749268 C5.42942245 -0.37306183 6.37311188 -0.37863098 7.34539795 -0.3843689 C8.90317963 -0.37054672 8.90317963 -0.37054672 10.49243164 -0.35644531 C11.5835173 -0.35848969 12.67460297 -0.36053406 13.79875183 -0.36264038 C17.41938826 -0.36565813 21.03957367 -0.34714227 24.66015625 -0.328125 C27.1659687 -0.32506925 29.67178284 -0.32319173 32.17759705 -0.32244873 C37.43429012 -0.31783953 42.6908668 -0.30377739 47.94750977 -0.28125 C54.70253416 -0.25236095 61.45745354 -0.24202579 68.212533 -0.2375679 C73.38790605 -0.23342096 78.5632545 -0.22360981 83.73861504 -0.21169281 C86.23022704 -0.20597577 88.72184144 -0.20122185 91.21345711 -0.19742584 C94.68800184 -0.19058864 98.16244902 -0.17696876 101.63696289 -0.16113281 C102.67750824 -0.16001495 103.71805359 -0.15889709 104.79013062 -0.15774536 C105.73100021 -0.15203522 106.67186981 -0.14632507 107.64125061 -0.14044189 C108.87486124 -0.1359799 108.87486124 -0.1359799 110.13339329 -0.13142776 C112 0 112 0 113 1 C113.09698498 3.18959038 113.12186727 5.3823753 113.12025452 7.57411194 C113.12153615 8.61669943 113.12153615 8.61669943 113.12284368 9.68034929 C113.12450049 12.02658986 113.11897387 14.37276008 113.11352539 16.71899414 C113.11324354 18.39399718 113.11340122 20.06900033 113.1139679 21.7440033 C113.11425594 26.30579279 113.10835814 30.86755623 113.10139394 35.42933965 C113.09516151 40.19129 113.09455669 44.9532409 113.09336853 49.7151947 C113.09025489 58.73915566 113.08204106 67.76310456 113.07201904 76.7870602 C113.06085893 87.05774487 113.05534771 97.32843009 113.05032361 107.59911931 C113.03985847 128.73275312 113.02205801 149.86637538 113 171 C122.24 171 131.48 171 141 171 C141 202.35 141 233.7 141 266 C133.35518158 259.44729849 133.35518158 259.44729849 130.4375 255.8125 C124.80744212 249.31033512 117.20580767 242.40279016 109.32617188 238.76586914 C107 237 107 237 106.43237305 233.99731445 C106.45855713 232.7980835 106.48474121 231.59885254 106.51171875 230.36328125 C106.52783203 229.06455078 106.54394531 227.76582031 106.56054688 226.42773438 C106.60232391 225.05597301 106.64464865 223.68422823 106.6875 222.3125 C106.71258255 220.92907618 106.73539582 219.54560923 106.75585938 218.16210938 C106.81489173 214.77365236 106.89719918 211.38736615 107 208 C106.14794228 208.0199855 106.14794228 208.0199855 105.27867126 208.04037476 C99.29140195 208.17456271 93.30456886 208.26419995 87.31616211 208.32958984 C85.09039929 208.35950471 82.86475167 208.40025235 80.6394043 208.45263672 C66.74011501 208.77129878 56.56392019 207.99961942 44 202 C40.12646125 200.72852614 36.20747882 199.72414863 32.25 198.75 C30.84427734 198.38648438 30.84427734 198.38648438 29.41015625 198.015625 C18.32044363 195.20113242 7.76094976 193.6835489 -3.6875 193.375 C-5.47317383 193.31699219 -5.47317383 193.31699219 -7.29492188 193.2578125 C-10.19647053 193.16459005 -13.09802966 193.07878652 -16 193 C-14.55282706 189.96285387 -13.15891549 187.98356007 -10.6875 185.6875 C-6.14232976 181.27489722 -2.8485082 176.6970164 0 171 C25.41 171 50.82 171 77 171 C77 125.79 77 80.58 77 34 C53.735 34.495 53.735 34.495 30 35 C29.67 40.61 29.34 46.22 29 52 C28.08401142 56.56959275 27.11908802 60.90872401 25.875 65.375 C25.5665918 66.52186279 25.25818359 67.66872559 24.94042969 68.8503418 C21.62041237 80.89675722 17.78975634 92.891341 12 104 C7.45550745 103.24943901 4.84171167 100.59219062 1.4140625 97.69140625 C-3.74100328 94.07952359 -8.74121302 93.72046661 -14.875 93.875 C-15.56335938 93.88402344 -16.25171875 93.89304687 -16.9609375 93.90234375 C-18.64077838 93.92567487 -20.32043746 93.96153674 -22 94 C-20.3564152 88.86771612 -18.56922437 83.85090211 -16.50073242 78.87524414 C-12.09760713 68.18965571 -9.30950301 57.30671379 -7 46 C-6.8261377 45.17677246 -6.65227539 44.35354492 -6.47314453 43.50537109 C-4.69093062 34.51674066 -4.05550642 25.41398902 -3.32275391 16.29394531 C-3.14960864 14.16402129 -2.96602986 12.03519148 -2.78125 9.90625 C-2.67876953 8.65134766 -2.57628906 7.39644531 -2.47070312 6.10351562 C-2 3 -2 3 0 0 Z " fill="#033686" transform="translate(615,184)"/>
<path d="M0 0 C98.81 0 98.81 0 119.08984375 18.953125 C132.58132688 32.93661999 134.70322708 49.22276312 134.375 67.796875 C133.77070846 82.08405365 127.50492121 95.56434497 117.0078125 105.37890625 C98.05579697 120.68063085 78.50075808 121.44463486 55.125 121.1875 C43.183125 121.0946875 43.183125 121.0946875 31 121 C31 140.8 31 160.6 31 181 C20.77 181 10.54 181 0 181 C0 121.27 0 61.54 0 0 Z " fill="#043686" transform="translate(905,264)"/>
<path d="M0 0 C2.31737862 4.63475725 2.43410184 8.92584136 2.5 14 C2.54125 14.7940625 2.5825 15.588125 2.625 16.40625 C2.7008767 22.09700241 2.7008767 22.09700241 0.74536133 24.61645508 C-8.00779556 32.09251426 -19.38636897 33.10029314 -30.375 33.875 C-54.23416123 35.58116423 -54.23416123 35.58116423 -73.8125 47.875 C-79.05703429 54.06484541 -81.61451925 60.1153441 -83.25 67.9375 C-83.42273437 68.71673828 -83.59546875 69.49597656 -83.7734375 70.29882812 C-84.19265663 72.1969592 -84.5978167 74.09818643 -85 76 C-84.16597656 75.32453125 -83.33195312 74.6490625 -82.47265625 73.953125 C-76.28034161 69.01422566 -70.5326637 64.68198759 -63 62 C-61.26169922 61.22076172 -61.26169922 61.22076172 -59.48828125 60.42578125 C-54.0761216 58.40320714 -48.7129047 58.56136616 -43 58.625 C-41.43765625 58.60759766 -41.43765625 58.60759766 -39.84375 58.58984375 C-33.48245748 58.61393955 -28.79629764 59.37574217 -23 62 C-22.13632813 62.35320312 -21.27265625 62.70640625 -20.3828125 63.0703125 C-6.120341 69.73271268 3.60969951 81.97677044 8.94140625 96.578125 C14.59554672 114.38730174 13.8608551 136.45877829 5.8125 153.4375 C-2.52961414 168.65575007 -14.49597535 178.5855405 -31.125 183.8125 C-49.51283988 187.99155452 -69.92018018 185.99556367 -86 176 C-98.51507791 166.45460159 -105.33010039 154.98090901 -109.421875 139.8984375 C-109.83478723 138.00839819 -109.83478723 138.00839819 -111 137 C-111.80922924 131.74663121 -112.13691994 126.6583042 -112.16796875 121.3359375 C-112.17220352 120.62973267 -112.17643829 119.92352783 -112.18080139 119.19592285 C-112.19062869 116.92222039 -112.19073048 114.64871984 -112.1875 112.375 C-112.18689575 111.59610413 -112.1862915 110.81720825 -112.18566895 110.01470947 C-112.1461312 91.23283481 -111.11708875 73.15437737 -106 55 C-105.690625 53.89011719 -105.38125 52.78023438 -105.0625 51.63671875 C-100.44731722 36.50276522 -90.80144293 23.90586857 -77 16 C-62.78740867 8.69114959 -48.07199734 7.64873286 -32.36035156 5.90087891 C-24.58814117 5.02995305 -17.5554436 3.87515013 -10.32348633 0.82470703 C-6.76661739 -0.43778149 -3.73501372 -0.28188783 0 0 Z " fill="#053887" transform="translate(1903,263)"/>
<path d="M0 0 C1.39073787 1.02055995 2.76648236 2.06192697 4.125 3.125 C5.13626953 3.85783203 5.13626953 3.85783203 6.16796875 4.60546875 C17.81971573 13.73304618 23.66342694 28.89745051 26.125 43.125 C26.92460619 56.22763786 27.01127739 69.50304693 23.125 82.125 C22.74214844 83.52298828 22.74214844 83.52298828 22.3515625 84.94921875 C18.577802 97.08410917 10.30985913 108.3457688 -0.69140625 114.76953125 C-3.70916108 116.35356348 -6.74598753 117.77522991 -9.875 119.125 C-10.66519531 119.46789062 -11.45539063 119.81078125 -12.26953125 120.1640625 C-23.22731717 124.15889416 -38.01076001 123.68723895 -48.57421875 118.90234375 C-55.7308554 115.24103578 -62.36356584 110.89215124 -66.875 104.125 C-67.205 125.575 -67.535 147.025 -67.875 169.125 C-77.115 169.125 -86.355 169.125 -95.875 169.125 C-95.875 111.375 -95.875 53.625 -95.875 -5.875 C-86.635 -5.875 -77.395 -5.875 -67.875 -5.875 C-67.875 -0.265 -67.875 5.345 -67.875 11.125 C-67.215 11.125 -66.555 11.125 -65.875 11.125 C-65.61203125 10.5371875 -65.3490625 9.949375 -65.078125 9.34375 C-60.49854086 0.89828314 -51.50059729 -4.32972647 -42.609375 -7.10546875 C-27.52822185 -10.21319592 -13.09814916 -8.27251526 0 0 Z " fill="#043787" transform="translate(2028.875,325.875)"/>
<path d="M0 0 C0.85829123 0.00359811 1.71658247 0.00719622 2.60088253 0.01090336 C3.51292415 0.01078282 4.42496576 0.01066229 5.364645 0.0105381 C8.33135469 0.01128742 11.29800237 0.01891652 14.26470089 0.0267725 C16.09050625 0.02824186 17.91631202 0.02926261 19.74211788 0.02982426 C26.52959987 0.03507784 33.31707286 0.04903891 40.10454464 0.06192875 C55.26391964 0.08255375 70.42329464 0.10317875 86.04204464 0.12442875 C86.04204464 33.45442875 86.04204464 66.78442875 86.04204464 101.12442875 C91.65204464 101.12442875 97.26204464 101.12442875 103.04204464 101.12442875 C103.04204464 118.94442875 103.04204464 136.76442875 103.04204464 155.12442875 C94.13204464 155.12442875 85.22204464 155.12442875 76.04204464 155.12442875 C76.04204464 145.22442875 76.04204464 135.32442875 76.04204464 125.12442875 C47.66204464 125.12442875 19.28204464 125.12442875 -9.95795536 125.12442875 C-9.95795536 135.02442875 -9.95795536 144.92442875 -9.95795536 155.12442875 C-19.19795536 155.12442875 -28.43795536 155.12442875 -37.95795536 155.12442875 C-37.95795536 137.30442875 -37.95795536 119.48442875 -37.95795536 101.12442875 C-31.52295536 100.62942875 -31.52295536 100.62942875 -24.95795536 100.12442875 C-20.64504719 97.13025441 -18.8696919 93.52407341 -16.83295536 88.74942875 C-16.11752567 87.12907719 -16.11752567 87.12907719 -15.38764286 85.47599125 C-10.60338886 72.14653719 -10.15397449 57.92574193 -9.33295536 43.93692875 C-9.21146307 42.00653313 -9.08907097 40.07619392 -8.96576786 38.14591312 C-8.48616674 30.52573641 -8.03188796 22.90575928 -7.68549442 15.27823734 C-7.64276402 14.3497649 -7.60003361 13.42129246 -7.55600834 12.46468449 C-7.47659791 10.69755801 -7.40152337 8.93022995 -7.33133793 7.16271305 C-7.02353063 0.24284643 -6.94449831 0.01236147 0 0 Z " fill="#063988" transform="translate(1538.9579553604126,319.8755712509155)"/>
<path d="M0 0 C2.47223404 1.93790035 4.81040273 3.95587381 7.12890625 6.07421875 C7.763125 6.6053125 8.39734375 7.13640625 9.05078125 7.68359375 C18.15647721 15.82231315 22.20544278 27.31801001 24.12890625 39.07421875 C24.25910156 39.8528125 24.38929687 40.63140625 24.5234375 41.43359375 C27.34228344 62.02996145 23.44722089 82.6547558 11.28125 99.65625 C1.61915562 111.30234733 -13.11169512 117.75488468 -27.87109375 120.07421875 C-45.39819538 121.47818644 -60.12653562 120.2496927 -74.87109375 110.07421875 C-75.63035156 109.584375 -76.38960937 109.09453125 -77.171875 108.58984375 C-89.41440631 100.04755938 -96.5024864 85.68194387 -99.33203125 71.34765625 C-101.77001495 54.73235478 -101.06985193 36.03894241 -92.87109375 21.07421875 C-92.16533203 19.76710938 -92.16533203 19.76710938 -91.4453125 18.43359375 C-84.92842127 7.29733092 -75.64857693 -0.72744385 -63.87109375 -5.92578125 C-62.96746094 -6.33828125 -62.06382813 -6.75078125 -61.1328125 -7.17578125 C-42.260119 -14.37490142 -16.652857 -11.16987551 0 0 Z " fill="#053887" transform="translate(1750.87109375,327.92578125)"/>
<path d="M0 0 C1.33095618 1.18651132 2.62474611 2.41623344 3.875 3.6875 C4.52984375 4.35265625 5.1846875 5.0178125 5.859375 5.703125 C14.11842598 14.64474218 17.37483231 25.14306295 17.21557617 37.17626953 C17.21623329 38.50982231 17.21623329 38.50982231 17.21690369 39.87031555 C17.21483555 42.77054833 17.19159901 45.67018237 17.16796875 48.5703125 C17.16236575 50.5962594 17.15809898 52.6222104 17.15510559 54.64816284 C17.14371224 59.95165448 17.11429298 65.25489528 17.08099365 70.55828857 C17.05017341 75.98153288 17.03657481 81.40481815 17.02148438 86.828125 C16.98941754 97.44804398 16.93669513 108.06771178 16.875 118.6875 C7.965 118.6875 -0.945 118.6875 -10.125 118.6875 C-10.62 111.2625 -10.62 111.2625 -11.125 103.6875 C-11.74375 104.533125 -12.3625 105.37875 -13 106.25 C-20.30629025 114.93135049 -31.01858107 119.99704932 -42.125 121.6875 C-52.58489977 122.42431084 -62.62847105 122.65491514 -72.125 117.6875 C-73.20974609 117.12675781 -73.20974609 117.12675781 -74.31640625 116.5546875 C-82.1608785 112.05937323 -87.80016419 106.11777089 -91.125 97.6875 C-91.48335937 96.78773438 -91.84171875 95.88796875 -92.2109375 94.9609375 C-93.29935566 91.06309811 -93.4678417 87.38947521 -93.4375 83.375 C-93.43331055 82.6224292 -93.42912109 81.8698584 -93.42480469 81.09448242 C-93.20075921 70.06977659 -89.19230222 62.09511323 -81.23046875 54.421875 C-70.08611664 45.24174079 -56.07812742 42.50150893 -42.0078125 42.58984375 C-41.15065643 42.5912587 -40.29350037 42.59267365 -39.41036987 42.59413147 C-36.6902101 42.59969978 -33.97013462 42.61224636 -31.25 42.625 C-29.39843869 42.6300191 -27.54687609 42.63458129 -25.6953125 42.63867188 C-21.17184285 42.64965883 -16.64843568 42.66690148 -12.125 42.6875 C-12.25288814 40.43836136 -12.39009188 38.18975106 -12.53125 35.94140625 C-12.60666016 34.6891626 -12.68207031 33.43691895 -12.75976562 32.14672852 C-13.26535412 27.35817009 -13.99605395 25.36401161 -17.125 21.6875 C-26.37423327 14.98796031 -36.58397472 14.88224105 -47.65234375 15.92578125 C-55.39124282 17.27226808 -61.96306701 21.8522714 -67.125 27.6875 C-71.68064061 26.10217191 -75.43975769 23.69746919 -79.4375 21.0625 C-80.08267578 20.64226562 -80.72785156 20.22203125 -81.39257812 19.7890625 C-82.97260724 18.75911759 -84.54916047 17.72384372 -86.125 16.6875 C-85.06440245 9.80153084 -78.66627465 4.58092858 -73.3515625 0.62109375 C-53.30340867 -11.82166124 -19.93231373 -14.4600479 0 0 Z " fill="#063888" transform="translate(2161.125,326.3125)"/>
<path d="M0 0 C1.47619599 0.99482773 2.93713936 2.013027 4.375 3.0625 C5.4475 3.805 6.52 4.5475 7.625 5.3125 C19.51237651 17.19987651 19.47509893 31.8793545 19.49106503 47.64320755 C19.48822218 50.29861339 19.48053349 52.95397972 19.47265625 55.609375 C19.47078737 57.47552451 19.46936569 59.34167452 19.46836853 61.20782471 C19.46458037 66.08045851 19.4547824 70.95306173 19.44366455 75.82568359 C19.43337015 80.81347236 19.42885383 85.80126614 19.42382812 90.7890625 C19.41315621 100.54689049 19.39559011 110.3046879 19.375 120.0625 C10.795 120.0625 2.215 120.0625 -6.625 120.0625 C-6.625 114.7825 -6.625 109.5025 -6.625 104.0625 C-7.285 104.0625 -7.945 104.0625 -8.625 104.0625 C-8.87636719 104.64257812 -9.12773438 105.22265625 -9.38671875 105.8203125 C-14.29790782 114.71312805 -25.14886164 119.89102336 -34.53808594 122.61816406 C-47.86658061 125.45600453 -63.01641036 123.38028383 -74.5625 116.25 C-81.56210827 111.14772145 -87.89229662 103.74887029 -89.625 95.0625 C-90.26123173 82.60704037 -90.63545616 71.06139086 -82.35546875 60.94140625 C-72.98859811 50.77105687 -61.48139568 45.20751952 -47.625 44.0625 C-43.04093314 43.91991106 -38.46094102 43.92304851 -33.875 43.9375 C-32.66328125 43.93363281 -31.4515625 43.92976563 -30.203125 43.92578125 C-22.95414901 43.93359265 -15.82941729 44.2519569 -8.625 45.0625 C-8.85471198 42.51753311 -9.10798409 39.9786014 -9.375 37.4375 C-9.436875 36.72464844 -9.49875 36.01179688 -9.5625 35.27734375 C-10.11464898 30.26199053 -11.38095281 27.08752152 -14.625 23.0625 C-23.9477108 16.0704669 -32.30417534 16.0970818 -43.625 17.0625 C-50.40505329 18.44838605 -54.92721319 21.70053375 -59.73828125 26.57421875 C-62.15873197 28.48351839 -63.53068122 28.99414244 -66.625 29.0625 C-69.6328125 27.515625 -69.6328125 27.515625 -72.75 25.3125 C-73.78382812 24.59578125 -74.81765625 23.8790625 -75.8828125 23.140625 C-80.47004761 19.66425879 -80.47004761 19.66425879 -81.625 18.0625 C-81.25134704 12.23584911 -75.54923463 7.85290628 -71.546875 4.12890625 C-66.02987561 -0.48513101 -60.45042882 -2.83506864 -53.625 -4.9375 C-52.78066406 -5.29457031 -51.93632813 -5.65164063 -51.06640625 -6.01953125 C-35.31277737 -10.22169105 -14.19939197 -8.10496267 0 0 Z " fill="#053787" transform="translate(1404.625,324.9375)"/>
<path d="M0 0 C10.23 0 20.46 0 31 0 C35.8125 14.5625 35.8125 14.5625 37.31176758 19.11547852 C37.71032959 20.31615967 38.1088916 21.51684082 38.51953125 22.75390625 C38.92276611 23.97408447 39.32600098 25.1942627 39.74145508 26.45141602 C40.6186151 28.92464996 41.52480234 31.29054707 42.56567383 33.69042969 C43.64910165 36.19033566 44.60631915 38.60967646 45.4296875 41.19921875 C45.66510254 41.92737793 45.90051758 42.65553711 46.14306641 43.40576172 C46.50537354 44.53522217 46.50537354 44.53522217 46.875 45.6875 C48.93378948 51.99743932 51.21842383 58.11246231 53.84765625 64.2109375 C55.8456099 69.04666259 57.39450155 74.02359443 59 79 C60.08581003 82.2014605 61.17394459 85.40209913 62.265625 88.6015625 C63 91 63 91 63 93 C63.66 93 64.32 93 65 93 C65.09925781 91.87207031 65.19851563 90.74414062 65.30078125 89.58203125 C65.91787047 84.67654884 67.47182736 80.30397774 69.1875 75.6875 C71.95777909 68.01899429 74.54106962 60.31892246 76.95776367 52.53198242 C79.65006789 43.85827728 82.58731614 35.34220303 85.875 26.875 C89.17012101 18.31878058 92.18011103 9.72403149 95 1 C104.9 1 114.8 1 125 1 C124.19926743 5.80439542 123.19791807 9.65976986 121.5625 14.1875 C121.13066406 15.39792969 120.69882813 16.60835938 120.25390625 17.85546875 C119 21 119 21 117 24 C116.56323126 25.38357067 116.17291948 26.78210592 115.8125 28.1875 C114.4641427 32.89648386 112.63894668 37.23753483 110.625 41.6875 C108.21460493 47.0273353 106.09886615 52.35705055 104.3125 57.9375 C102.801829 62.65650161 101.13076227 67.09315662 99.02734375 71.5703125 C97.67251431 74.77450988 96.62621238 78.06612839 95.5625 81.375 C93.82021342 86.77695388 91.75548795 91.86935133 89.31640625 96.9921875 C87.35355686 101.47703625 85.82304913 106.09750801 84.23730469 110.72631836 C82.50838921 115.71507607 80.53662886 120.48503565 78.17578125 125.21484375 C77.11893729 127.71826483 76.37784411 130.11200171 75.64453125 132.72265625 C74.10539476 137.97792363 71.94476417 142.67535965 69.375 147.5 C68.71685303 148.7377417 68.71685303 148.7377417 68.04541016 150.00048828 C62.93383641 159.32116086 56.78941936 167.2872854 47 172 C46.37222656 172.31710937 45.74445313 172.63421875 45.09765625 172.9609375 C34.39975037 177.43722057 20.62622696 175.85573678 10 172 C9.566578 163.84524526 10.70629774 156.82316305 13 149 C13.61746094 149.0721875 14.23492188 149.144375 14.87109375 149.21875 C26.94636227 150.96207466 26.94636227 150.96207466 38 147 C43.67346657 142.02480624 47.0241804 135.21518203 49 128 C48.49468242 124.2834957 47.3275136 121.07344659 45.8828125 117.625 C45.44646484 116.57248047 45.01011719 115.51996094 44.56054688 114.43554688 C43.84995117 112.73495117 43.84995117 112.73495117 43.125 111 C39.0865501 101.22409311 35.21138083 91.40617119 31.5 81.5 C27.51180712 70.86837734 23.32318117 60.33857403 18.99536133 49.84106445 C15.51170101 41.35445476 12.25800969 32.7973972 9.08178711 24.19165039 C6.59863435 17.49504173 3.92077865 10.92921422 0.99609375 4.4140625 C0 2 0 2 0 0 Z " fill="#063886" transform="translate(1048,320)"/>
<path d="M0 0 C9.24 0 18.48 0 28 0 C28 16.17 28 32.34 28 49 C38.28588558 49.08333072 38.28588558 49.08333072 44.6875 44.1875 C45.409375 43.36507812 46.13125 42.54265625 46.875 41.6953125 C49.78084694 38.00958752 52.64383765 34.30776649 55.41015625 30.515625 C58.55463894 26.2088045 61.84365356 22.01538284 65.125 17.8125 C65.69887451 17.07652588 66.27274902 16.34055176 66.86401367 15.58227539 C68.00294863 14.12198119 69.15608659 12.67265587 70.32299805 11.23461914 C72.06630353 9.02510239 72.06630353 9.02510239 73.37426758 6.46655273 C75.04215887 3.64172335 76.32512135 1.92405929 79 0 C84.85351146 -1.10900188 90.51264132 -0.85203566 96.4375 -0.5625 C98.04350771 -0.51730825 99.64963743 -0.47625182 101.25585938 -0.43945312 C105.1736053 -0.34073067 109.0854539 -0.1857417 113 0 C111.13761309 3.97070919 108.5612113 7.03558941 105.6875 10.3125 C105.15769531 10.92351562 104.62789062 11.53453125 104.08203125 12.1640625 C102.95930624 13.45809531 101.83475046 14.75054168 100.70849609 16.04150391 C98.50610291 18.56616783 96.31263463 21.09849694 94.11938477 23.63110352 C93.03622922 24.88114961 91.9520749 26.13033094 90.86694336 27.37866211 C88.16870696 30.48443832 85.48439874 33.60041144 82.828125 36.7421875 C77.62930476 42.88208896 72.41039803 48.79728413 66.546875 54.328125 C64.77362187 55.86505205 64.77362187 55.86505205 65 58 C66.42896484 59.13114524 66.42896484 59.13114524 68.3125 60.3125 C78.20476973 67.50053374 85.45129584 78.71821051 92.78369141 88.39697266 C94.76084347 91.00274954 96.75582124 93.5947423 98.75 96.1875 C99.14574219 96.7036084 99.54148437 97.2197168 99.94921875 97.75146484 C102.51343201 101.08995031 105.10299949 104.40730609 107.70703125 107.71484375 C108.34479492 108.52735596 108.98255859 109.33986816 109.63964844 110.17700195 C110.90375334 111.78634424 112.17123846 113.3930382 113.44238281 114.99682617 C114.30814941 116.10054565 114.30814941 116.10054565 115.19140625 117.2265625 C115.70904541 117.88221191 116.22668457 118.53786133 116.76000977 119.21337891 C118 121 118 121 119 124 C114.18071514 124.27401898 109.36604365 124.47241001 104.54077148 124.60424805 C102.90389998 124.65923506 101.2675607 124.73406381 99.63256836 124.82983398 C86.1182313 125.60102136 86.1182313 125.60102136 81.04736328 121.76831055 C78.72417884 118.95986124 76.84026898 116.14221357 75 113 C74.06708694 111.67922442 73.12573306 110.36432332 72.171875 109.05859375 C71.36014449 107.85454315 70.55286559 106.6474798 69.75 105.4375 C65.63300891 99.34899205 61.42425737 93.3363351 57.125 87.375 C56.5897168 86.62919678 56.05443359 85.88339355 55.50292969 85.11499023 C54.98891602 84.40415283 54.47490234 83.69331543 53.9453125 82.9609375 C53.49687988 82.34009277 53.04844727 81.71924805 52.58642578 81.07958984 C50.47895713 78.3169832 48.22443764 75.66932516 46 73 C40.06 72.67 34.12 72.34 28 72 C28 89.16 28 106.32 28 124 C18.76 124 9.52 124 0 124 C0 83.08 0 42.16 0 0 Z " fill="#043686" transform="translate(1189,321)"/>
<path d="M0 0 C14.1384375 -0.1546875 14.1384375 -0.1546875 28.5625 -0.3125 C31.50615479 -0.35802002 34.44980957 -0.40354004 37.48266602 -0.45043945 C69.95276953 -0.74328658 69.95276953 -0.74328658 82 11 C90.27491424 19.22362345 95.14011565 28.50531092 95.38037109 40.35571289 C95.3453049 55.17117786 91.86320191 66.66117155 81.75 77.75 C71.49121442 87.48906737 58.64545204 88.30723056 45.21484375 88.1953125 C43.48868835 88.19229126 43.48868835 88.19229126 41.72766113 88.18920898 C37.46423304 88.17881278 33.20086215 88.15089063 28.9375 88.125 C19.388125 88.08375 9.83875 88.0425 0 88 C0 58.96 0 29.92 0 0 Z " fill="#F7F8F9" transform="translate(457,149)"/>
<path d="M0 0 C5.61148975 3.5071811 10.06591079 7.52463868 14 12.875 C14.36351562 12.35550781 14.72703125 11.83601563 15.1015625 11.30078125 C18.7291855 6.26861704 22.33371495 1.70814252 28 -1.125 C36.78184584 -1.93547409 44.53118864 -2.27955738 52.0078125 3.01953125 C57.78004783 8.39563278 60.14662558 14.38675969 60.5 22.1875 C60.3738546 33.33416633 55.12673321 41.75800176 48.04296875 49.98046875 C47.56959076 50.53414124 47.09621277 51.08781372 46.60848999 51.65826416 C41.55965696 57.49276818 36.21881839 63.02842428 30.76367188 68.48193359 C29.09436417 70.15571799 27.44183681 71.84506123 25.7890625 73.53515625 C24.71712121 74.61295012 23.64424046 75.68981066 22.5703125 76.765625 C22.08378204 77.26652649 21.59725159 77.76742798 21.09597778 78.2835083 C18.22338306 81.11806077 16.10867291 82.75888439 12 82.875 C9.38671875 81.03125 9.38671875 81.03125 6.6875 78.375 C5.71032625 77.43287669 4.7324589 76.49147226 3.75390625 75.55078125 C2.84511719 74.66777344 1.93632813 73.78476562 1 72.875 C-0.28234667 71.76002295 -1.5729744 70.6544323 -2.875 69.5625 C-33.12814228 43.0910005 -33.12814228 43.0910005 -35.43359375 25.58203125 C-35.73884509 17.54374606 -34.50551714 12.06168398 -29.3515625 5.90625 C-21.98695151 -1.94075909 -10.19840241 -3.93500002 0 0 Z " fill="#E61B1C" transform="translate(559,294.125)"/>
<path d="M0 0 C1.13320679 0.0146228 1.13320679 0.0146228 2.28930664 0.02954102 C13.41878222 0.38337174 20.13976414 5.40018127 27.6875 13.4375 C29.39436513 15.75165946 30.46898014 17.79737363 31.6875 20.4375 C32.079375 21.22125 32.47125 22.005 32.875 22.8125 C37.2902796 37.07724946 35.79821994 53.59463196 29 66.6875 C22.78804234 74.0746929 16.65232478 79.72286465 6.77734375 80.60888672 C-4.50252288 81.3385466 -12.5877866 80.39418295 -21.625 73.1875 C-30.26433652 65.0624097 -32.30667352 53.22955442 -32.71923828 41.76074219 C-32.86608119 30.67060646 -31.35914718 19.93841102 -24.015625 11.1484375 C-17.10233217 4.20343232 -9.90774209 -0.14199519 0 0 Z " fill="#F7F8F9" transform="translate(1712.3125,341.5625)"/>
<path d="M0 0 C9.53164435 5.81038594 13.97179226 12.46957027 17.03125 22.953125 C20.15745488 36.60880016 19.32882154 52.16698815 12.09375 64.390625 C7.60837279 70.8431062 1.44490938 76.16118229 -6.34375 78.015625 C-17.07453331 79.20793426 -26.66118777 78.67797778 -35.64453125 72.21875 C-42.43179949 66.23675087 -46.16203121 57.96391725 -47.05273438 49.04711914 C-47.22966694 45.21942713 -47.27555662 41.40977049 -47.28125 37.578125 C-47.31798828 36.28841797 -47.35472656 34.99871094 -47.39257812 33.66992188 C-47.44321326 22.54707067 -44.4443012 14.24884287 -36.96875 5.953125 C-26.56706204 -3.42994191 -13.03883974 -6.17171748 0 0 Z " fill="#F6F7F8" transform="translate(2007.71875,344.609375)"/>
<path d="M0 0 C6.909375 -0.04125 13.81875 -0.0825 20.9375 -0.125 C23.10046631 -0.14320801 25.26343262 -0.16141602 27.49194336 -0.18017578 C29.23290764 -0.18602457 30.97387469 -0.19111921 32.71484375 -0.1953125 C34.0384491 -0.2106604 34.0384491 -0.2106604 35.38879395 -0.22631836 C45.93530525 -0.22924186 55.27437734 1.76400301 63.23828125 9.046875 C70.85913077 17.12748327 72.54949193 23.46702424 72.2890625 34.5234375 C71.5351376 43.59091263 68.55660969 50.81981903 61.875 57.125 C54.15677969 63.27316536 46.16192288 64.59081923 36.5234375 64.390625 C35.58991455 64.38659668 34.6563916 64.38256836 33.69458008 64.37841797 C30.25451603 64.35771323 26.81473528 64.3018703 23.375 64.25 C15.66125 64.1675 7.9475 64.085 0 64 C0 42.88 0 21.76 0 0 Z " fill="#F5F6F8" transform="translate(936,293)"/>
<path d="M0 0 C7.24846894 5.75253726 10.62807948 13.67356232 12.70703125 22.52734375 C13.02639387 25.76115467 13.08820542 28.96661469 13.08203125 32.21484375 C13.08041992 33.0960791 13.07880859 33.97731445 13.07714844 34.88525391 C12.88482638 45.16317086 10.42173704 54.46855881 3.21484375 62.109375 C-4.17083418 69.10364604 -12.17108306 70.03206744 -21.98168945 69.94482422 C-30.27320447 69.65350815 -36.34058198 67.59613199 -42.60546875 62.02734375 C-51.878905 51.98424984 -52.81566381 38.7588148 -52.55859375 25.7578125 C-52.06556971 14.87986536 -47.06261492 7.85926337 -39.29296875 0.52734375 C-28.48079805 -8.69416963 -11.36014159 -7.29603642 0 0 Z " fill="#F7F8F9" transform="translate(1872.29296875,352.47265625)"/>
<path d="M0 0 C12.21 0 24.42 0 37 0 C37 25.08 37 50.16 37 76 C19.84 76 2.68 76 -15 76 C-13 71 -13 71 -11.5625 68.4375 C-9.64880706 64.22737553 -8.67738951 60.0092348 -7.6484375 55.51171875 C-7 53 -7 53 -6 52 C-5.72331471 50.28712327 -5.5072929 48.56439115 -5.31640625 46.83984375 C-5.19442871 45.74655762 -5.07245117 44.65327148 -4.94677734 43.52685547 C-4.81996582 42.34236816 -4.6931543 41.15788086 -4.5625 39.9375 C-4.43053223 38.73496582 -4.29856445 37.53243164 -4.16259766 36.29345703 C-3.15863108 26.95938047 -2.33145448 17.61646583 -1.64672852 8.25366211 C-1.57510498 7.31143799 -1.50348145 6.36921387 -1.4296875 5.3984375 C-1.34050049 4.15586182 -1.34050049 4.15586182 -1.24951172 2.88818359 C-1 1 -1 1 0 0 Z " fill="#F4F5F8" transform="translate(1560,345)"/>
<path d="M0 0 C6.03387542 4.27049632 10.51748788 10.07561018 11.96484375 17.390625 C12.90507884 26.19705225 11.84728522 35.07535419 6.33984375 42.265625 C2.85060915 45.98279955 -1.33224458 47.64114186 -6.03515625 49.390625 C-7.02515625 49.885625 -7.02515625 49.885625 -8.03515625 50.390625 C-17.17012224 51.19031899 -23.98217784 49.99898963 -31.28515625 44.390625 C-37.16261781 38.88339724 -39.17419221 31.78671346 -39.53515625 23.890625 C-39.13630106 15.41797375 -36.90742681 8.65414649 -30.59765625 2.828125 C-22.14298235 -4.24439351 -9.80829388 -5.18725412 0 0 Z " fill="#0D3C86" transform="translate(1046.03515625,171.609375)"/>
<path d="M0 0 C1.54425773 0.01507938 3.08852976 0.02876201 4.6328125 0.04101562 C8.38051015 0.07375143 12.12766109 0.12535243 15.875 0.1875 C16.97633782 19.09379917 16.97633782 19.09379917 11.55859375 25.5 C11.00300781 26.056875 10.44742188 26.61375 9.875 27.1875 C9.029375 28.115625 8.18375 29.04375 7.3125 30 C-0.78114355 36.07023266 -12.36276404 37.46758127 -22.125 36.1875 C-28.31365715 34.31790567 -33.22022546 30.54353133 -36.4375 24.875 C-37.78614677 19.60301718 -37.9507168 15.80717525 -35.5 11 C-25.77220436 -0.519758 -14.13946663 -0.24163534 0 0 Z " fill="#F5F7F8" transform="translate(2133.125,389.8125)"/>
<path d="M0 0 C1.2890625 0.00322266 2.578125 0.00644531 3.90625 0.00976562 C5.25260486 0.01811892 6.59895902 0.02658384 7.9453125 0.03515625 C9.31510254 0.04017795 10.68489435 0.04473968 12.0546875 0.04882812 C15.3932744 0.06058371 18.73177065 0.07701661 22.0703125 0.09765625 C23.18512963 17.89344085 23.18512963 17.89344085 17.96484375 25.08203125 C10.5079253 33.01557747 1.26639421 36.12060096 -9.4296875 36.59765625 C-16.65615744 36.39313352 -22.55928595 34.60531397 -27.65625 29.30078125 C-30.63593443 25.13921081 -31.66759382 21.30351936 -31.3515625 16.203125 C-30.45795944 11.7433838 -27.86505693 9.03302568 -24.7421875 5.91015625 C-17.29409047 1.1102715 -8.7187066 -0.03857835 0 0 Z " fill="#F2F4F5" transform="translate(1373.9296875,389.90234375)"/>
<path d="M0 0 C3.63 0 7.26 0 11 0 C11 6.93 11 13.86 11 21 C18.59 21 26.18 21 34 21 C34 14.07 34 7.14 34 0 C37.3 0 40.6 0 44 0 C44 17.16 44 34.32 44 52 C40.7 52 37.4 52 34 52 C34 44.74 34 37.48 34 30 C26.08 30 18.16 30 10 30 C10 37.26 10 44.52 10 52 C6.7 52 3.4 52 0 52 C0 34.84 0 17.68 0 0 Z " fill="#113F89" transform="translate(904,169)"/>
<path d="M0 0 C3.3 0 6.6 0 10 0 C10 6.93 10 13.86 10 21 C15.93513179 19.17073419 15.93513179 19.17073419 19.578125 15.15625 C20.18140625 14.40472656 20.7846875 13.65320313 21.40625 12.87890625 C22.0146875 12.09386719 22.623125 11.30882812 23.25 10.5 C24.48384567 8.94749584 25.71819753 7.39539379 26.953125 5.84375 C27.75991699 4.81024414 27.75991699 4.81024414 28.58300781 3.75585938 C30 2 30 2 32 0 C34.8203125 -0.1953125 34.8203125 -0.1953125 38.125 -0.125 C39.22070312 -0.10695312 40.31640625 -0.08890625 41.4453125 -0.0703125 C42.70988281 -0.03550781 42.70988281 -0.03550781 44 0 C39.81160918 5.93355366 35.15549909 11.19632349 30.13964844 16.43041992 C27.59366773 19.11978468 25.38108698 21.53044003 24 25 C24.68964844 25.81082031 25.37929688 26.62164062 26.08984375 27.45703125 C29.06860825 30.96402856 32.03681514 34.47983275 35 38 C35.45810059 38.54350098 35.91620117 39.08700195 36.38818359 39.64697266 C37.63895579 41.1353217 38.88217537 42.63000806 40.125 44.125 C40.84945312 44.99382812 41.57390625 45.86265625 42.3203125 46.7578125 C44 49 44 49 45 52 C40.68684336 53.03240451 37.29114038 53.21703529 33 52 C28.59003584 48.34342057 25.3712893 43.43912686 22.17919922 38.72851562 C21.22456186 37.32917142 20.20182981 35.97644418 19.16015625 34.640625 C18 33 18 33 18 31 C14.04 31.495 14.04 31.495 10 32 C10 38.6 10 45.2 10 52 C6.7 52 3.4 52 0 52 C0 34.84 0 17.68 0 0 Z " fill="#0E3D87" transform="translate(960,169)"/>
<path d="M0 0 C6.71275138 3.71021048 10.50329759 8.72473653 12.90625 15.93359375 C12.97595052 18.32850361 12.99073003 20.72527066 12.96875 23.12109375 C12.95972656 24.39339844 12.95070313 25.66570312 12.94140625 26.9765625 C12.92980469 27.95238281 12.91820312 28.92820312 12.90625 29.93359375 C12.57625 29.93359375 12.24625 29.93359375 11.90625 29.93359375 C11.90625 28.28359375 11.90625 26.63359375 11.90625 24.93359375 C10.59914063 25.34931641 10.59914063 25.34931641 9.265625 25.7734375 C5.4964218 26.91969951 1.71584149 27.93005394 -2.09375 28.93359375 C-3.10824219 29.26875 -4.12273438 29.60390625 -5.16796875 29.94921875 C-8.68808442 30.77522134 -10.58355556 30.92475839 -14.09375 29.93359375 C-20.80041756 25.24212251 -28.79966617 18.01002588 -31.09375 9.93359375 C-30.04018208 8.65534564 -28.97542217 7.38631882 -27.90625 6.12109375 C-27.31457031 5.41339844 -26.72289062 4.70570313 -26.11328125 3.9765625 C-19.33877899 -2.87656068 -8.80934516 -3.03655458 0 0 Z " fill="#F65550" transform="translate(606.09375,294.06640625)"/>
<path d="M0 0 C3.97894425 2.41857396 5.97749377 4.4912641 7.1875 8.9375 C8.04974866 17.08886106 8.46501594 23.30924872 3.1875 29.9375 C-0.94456889 33.58909576 -4.19092764 34.60744846 -9.5703125 34.30859375 C-13.32815511 33.68665116 -16.04687864 32.59564903 -18.8125 29.9375 C-22.79461622 24.15282821 -23.89885341 17.82143332 -22.8125 10.9375 C-21.44369082 6.46964532 -19.54473654 3.61865027 -16.125 0.4375 C-10.47269113 -2.12203609 -5.89153056 -1.64190196 0 0 Z " fill="#F4F6F9" transform="translate(1039.8125,179.0625)"/>
<path d="M0 0 C14.58571195 -0.02333003 29.17142103 -0.04091327 43.75714779 -0.05181217 C50.52910421 -0.05697491 57.30104905 -0.06401718 64.07299805 -0.07543945 C70.60224426 -0.08644714 77.13148294 -0.09227625 83.66073799 -0.09487724 C86.15793612 -0.09673199 88.65513355 -0.10035354 91.15232658 -0.10573006 C94.63664069 -0.11293684 98.12090431 -0.1139911 101.60522461 -0.11352539 C102.64891205 -0.11712067 103.69259949 -0.12071594 104.76791382 -0.12442017 C105.71167374 -0.1230455 106.65543365 -0.12167084 107.62779236 -0.12025452 C108.45279708 -0.12117631 109.2778018 -0.1220981 110.12780666 -0.12304783 C112 0 112 0 113 1 C113.09698498 3.18959038 113.12186727 5.3823753 113.12025452 7.57411194 C113.12110894 8.26917026 113.12196337 8.96422859 113.12284368 9.68034929 C113.12450049 12.02658986 113.11897387 14.37276008 113.11352539 16.71899414 C113.11324354 18.39399718 113.11340122 20.06900033 113.1139679 21.7440033 C113.11425594 26.30579279 113.10835814 30.86755623 113.10139394 35.42933965 C113.09516151 40.19129 113.09455669 44.9532409 113.09336853 49.7151947 C113.09025489 58.73915566 113.08204106 67.76310456 113.07201904 76.7870602 C113.06085893 87.05774487 113.05534771 97.32843009 113.05032361 107.59911931 C113.03985847 128.73275294 113.02225839 149.86637571 113 171 C112.34 171 111.68 171 111 171 C111 115.23 111 59.46 111 2 C74.37 2 37.74 2 0 2 C0 1.34 0 0.68 0 0 Z " fill="#2F5192" transform="translate(615,184)"/>
<path d="M0 0 C1.88704771 1.90804824 3.29755823 3.58219648 4.8125 5.75 C5.21919922 6.28882813 5.62589844 6.82765625 6.04492188 7.3828125 C8.39197989 10.61741346 9 11.8764219 9 16 C4.38 16 -0.24 16 -5 16 C-5.33 16.99 -5.66 17.98 -6 19 C-6.66 19.66 -7.32 20.32 -8 21 C-8 14.4 -8 7.8 -8 1 C-4.89162363 -0.03612546 -3.22236929 -0.52020311 0 0 Z " fill="#ECEFF2" transform="translate(978,200)"/>
<path d="M0 0 C3.60761652 -0.17179126 5.66261835 -0.20948718 9 1 C13.23326202 4.97552918 17.14717977 9.44153931 19 15 C14.8428528 15.62357208 11.13761943 15.83155567 7 15 C3.44282603 12.20849576 0.89185771 9.11403978 -1 5 C-0.69921875 2.16796875 -0.69921875 2.16796875 0 0 Z " fill="#0C387F" transform="translate(986,206)"/>
<path d="M0 0 C1.65 0 3.3 0 5 0 C5 4.29 5 8.58 5 13 C5.33 13 5.66 13 6 13 C6 15.64 6 18.28 6 21 C3.36 21 0.72 21 -2 21 C-2 16.38 -2 11.76 -2 7 C-1.34 7 -0.68 7 0 7 C0 4.69 0 2.38 0 0 Z " fill="#0D397D" transform="translate(908,200)"/>
<path d="M0 0 C0.66 0 1.32 0 2 0 C3.05648755 7.71152724 3.11624053 15.28665821 3.0625 23.0625 C3.05798828 24.30966797 3.05347656 25.55683594 3.04882812 26.84179688 C3.03713163 29.89458221 3.02074086 32.94726498 3 36 C1.515 36.495 1.515 36.495 0 37 C0 24.79 0 12.58 0 0 Z " fill="#ECEDEF" transform="translate(1642,434)"/>
<path d="M0 0 C3.79979982 3.25697128 6.48005185 7.22568435 8 12 C7.60546875 14.25 7.60546875 14.25 7 16 C4.36 16 1.72 16 -1 16 C-1.02685095 13.52076199 -1.04676547 11.0418116 -1.0625 8.5625 C-1.07506836 7.50192383 -1.07506836 7.50192383 -1.08789062 6.41992188 C-1.09653588 4.61306441 -1.05220011 2.80612397 -1 1 C-0.67 0.67 -0.34 0.34 0 0 Z " fill="#E7E9EF" transform="translate(542,164)"/>
<path d="M0 0 C-0.33 4.62 -0.66 9.24 -1 14 C-2.65 14 -4.3 14 -6 14 C-6.80967438 11.08517222 -7.21845993 9.53886783 -6.0625 6.6875 C-5.711875 6.130625 -5.36125 5.57375 -5 5 C-5.66 5 -6.32 5 -7 5 C-6.625 2.5625 -6.625 2.5625 -6 0 C-4 -1 -4 -1 0 0 Z " fill="#0D3676" transform="translate(1018,186)"/>
<path d="M0 0 C2.64 0 5.28 0 8 0 C8 2.64 8 5.28 8 8 C5.36 7.67 2.72 7.34 0 7 C0 4.69 0 2.38 0 0 Z " fill="#EDEEEF" transform="translate(1386,390)"/>
<path d="M0 0 C1.08667969 0.02707031 2.17335938 0.05414063 3.29296875 0.08203125 C4.54013672 0.13423828 4.54013672 0.13423828 5.8125 0.1875 C3.3375 3.6525 3.3375 3.6525 0.8125 7.1875 C0.1525 6.5275 -0.5075 5.8675 -1.1875 5.1875 C-0.8575 4.5275 -0.5275 3.8675 -0.1875 3.1875 C0.4725 3.1875 1.1325 3.1875 1.8125 3.1875 C1.8125 2.5275 1.8125 1.8675 1.8125 1.1875 C0.4925 1.1875 -0.8275 1.1875 -2.1875 1.1875 C-2.1875 1.8475 -2.1875 2.5075 -2.1875 3.1875 C-7.48161765 7.1875 -7.48161765 7.1875 -11.1875 7.1875 C-8.5404966 1.28264626 -6.59771879 -0.21282964 0 0 Z " fill="#124392" transform="translate(998.1875,168.8125)"/>
<path d="M0 0 C0.33 0 0.66 0 1 0 C1.19697084 2.97880524 1.38277673 5.95764386 1.5625 8.9375 C1.61857422 9.76830078 1.67464844 10.59910156 1.73242188 11.45507812 C2.16298765 18.832105 2.2831603 26.21480205 -1 33 C-1.33 33 -1.66 33 -2 33 C-1.36004696 21.99825406 -0.69572409 10.99836169 0 0 Z " fill="#ADBED9" transform="translate(1558,354)"/>
<path d="M0 0 C2.97 0 5.94 0 9 0 C10.2077558 3.62326739 9.54311128 4.64146369 8 8 C4.63820226 6.55922954 2.40843732 4.75249979 0 2 C0 1.34 0 0.68 0 0 Z " fill="#133F84" transform="translate(443,364)"/>
<path d="M0 0 C0.6875 2.25 0.6875 2.25 1 5 C-0.4375 7.3125 -0.4375 7.3125 -2 9 C-3.98 8.34 -5.96 7.68 -8 7 C-8 6.01 -8 5.02 -8 4 C-2.74285714 0 -2.74285714 0 0 0 Z " fill="#09387E" transform="translate(986,184)"/>
<path d="M0 0 C2.64 0.33 5.28 0.66 8 1 C8 1.66 8 2.32 8 3 C10.97 3.33 13.94 3.66 17 4 C17.33 5.65 17.66 7.3 18 9 C17.20335937 8.65066406 16.40671875 8.30132812 15.5859375 7.94140625 C14.52632812 7.48636719 13.46671875 7.03132813 12.375 6.5625 C11.33085938 6.11003906 10.28671875 5.65757812 9.2109375 5.19140625 C6.11314749 4.04198295 3.26789946 3.42688777 0 3 C0 2.01 0 1.02 0 0 Z " fill="#17428A" transform="translate(979,291)"/>
<path d="M0 0 C0.33 0 0.66 0 1 0 C1.2266442 4.54094645 1.42809131 9.08267465 1.625 13.625 C1.68945312 14.91019531 1.75390625 16.19539063 1.8203125 17.51953125 C1.871875 18.76347656 1.9234375 20.00742187 1.9765625 21.2890625 C2.02893066 22.43068848 2.08129883 23.57231445 2.13525391 24.74853516 C1.99253936 28.17935161 1.23707848 30.81230631 0 34 C-0.33 34 -0.66 34 -1 34 C-1.16938829 22.63216352 -0.63922005 11.34615583 0 0 Z " fill="#5375AD" transform="translate(1532,321)"/>
<path d="M0 0 C1.9375 0.8125 1.9375 0.8125 4 2 C4.495 3.485 4.495 3.485 5 5 C-6.22 4.67 -17.44 4.34 -29 4 C-29 3.67 -29 3.34 -29 3 C-19.1 3 -9.2 3 1 3 C0.67 2.01 0.34 1.02 0 0 Z " fill="#0E3D86" transform="translate(1303,440)"/>
<path d="M0 0 C0 2.97 0 5.94 0 9 C-3.3 9.33 -6.6 9.66 -10 10 C-9.34 9.01 -8.68 8.02 -8 7 C-7.34 7 -6.68 7 -6 7 C-5.731875 6.401875 -5.46375 5.80375 -5.1875 5.1875 C-2.37142857 0 -2.37142857 0 0 0 Z " fill="#E2E8F3" transform="translate(2151,429)"/>
<path d="M0 0 C-0.99 0 -1.98 0 -3 0 C-3.11601562 0.94552734 -3.11601562 0.94552734 -3.234375 1.91015625 C-3.48703125 2.59980469 -3.7396875 3.28945313 -4 4 C-5.890625 4.87109375 -5.890625 4.87109375 -8.25 5.4375 C-12.82913588 6.75208446 -14.96386871 8.37623039 -18 12 C-18.66 11.67 -19.32 11.34 -20 11 C-7.6612411 -2.76703967 -7.6612411 -2.76703967 0 0 Z " fill="#D1DBE8" transform="translate(2113,343)"/>
<path d="M0 0 C0.33 0 0.66 0 1 0 C1.33 7.26 1.66 14.52 2 22 C1.01 22.33 0.02 22.66 -1 23 C-1.02894547 19.54168414 -1.04678 16.08339928 -1.0625 12.625 C-1.07087891 11.64015625 -1.07925781 10.6553125 -1.08789062 9.640625 C-1.09111328 8.69960938 -1.09433594 7.75859375 -1.09765625 6.7890625 C-1.10289307 5.91975098 -1.10812988 5.05043945 -1.11352539 4.15478516 C-1 2 -1 2 0 0 Z " fill="#F0F0F1" transform="translate(1532,447)"/>
<path d="M0 0 C0.97066406 -0.01417969 1.94132812 -0.02835937 2.94140625 -0.04296875 C5.4375 0.1875 5.4375 0.1875 7.4375 2.1875 C6.4375 3.1875 6.4375 3.1875 3.05859375 3.28515625 C1.66402923 3.27848369 0.26948257 3.26652532 -1.125 3.25 C-1.83591797 3.24548828 -2.54683594 3.24097656 -3.27929688 3.23632812 C-5.04040013 3.22450864 -6.80146036 3.20657263 -8.5625 3.1875 C-8.5625 2.5275 -8.5625 1.8675 -8.5625 1.1875 C-5.47951949 0.15983983 -3.23119574 0.02151262 0 0 Z " fill="#EBEEF2" transform="translate(1853.5625,346.8125)"/>
<path d="M0 0 C0.33 0 0.66 0 1 0 C1 2.97 1 5.94 1 9 C2.98 8.67 4.96 8.34 7 8 C5.63055898 10.94956528 4.12169591 13.52468811 2 16 C1.34 16 0.68 16 0 16 C0 10.72 0 5.44 0 0 Z " fill="#D3DEEB" transform="translate(1961,321)"/>
<path d="M0 0 C2 3 2 3 1.609375 5.015625 C1.32578125 5.75296875 1.0421875 6.4903125 0.75 7.25 C-0.32978233 10.14042169 -1.25039453 12.9306256 -1.9375 15.9375 C-3 19 -3 19 -5.06640625 20.19140625 C-5.70449219 20.45824219 -6.34257813 20.72507812 -7 21 C-4.66666667 14 -2.33333333 7 0 0 Z " fill="#184192" transform="translate(1140,330)"/>
<path d="M0 0 C0.66 0.66 1.32 1.32 2 2 C-4.07439825 8.70459519 -4.07439825 8.70459519 -7.9375 9.9375 C-8.9584375 9.9684375 -8.9584375 9.9684375 -10 10 C-3.84965831 2.51708428 -3.84965831 2.51708428 0 0 Z " fill="#134391" transform="translate(1331,378)"/>
<path d="M0 0 C1.5778125 0.4021875 1.5778125 0.4021875 3.1875 0.8125 C2.1875 2.8125 2.1875 2.8125 -0.5625 3.9375 C-3.51436896 4.73223395 -5.78469837 4.99060598 -8.8125 4.8125 C-4.75096154 -0.23365385 -4.75096154 -0.23365385 0 0 Z " fill="#06327B" transform="translate(2019.8125,441.1875)"/>
<path d="M0 0 C0.33 0.99 0.66 1.98 1 3 C0.12601563 2.80083984 0.12601563 2.80083984 -0.765625 2.59765625 C-7.49048942 1.14906124 -14.14015858 0.44789343 -21 0 C-21 -0.33 -21 -0.66 -21 -1 C-13.54932699 -2.04819354 -7.2890898 -1.91318843 0 0 Z " fill="#23498C" transform="translate(2138,341)"/>
<path d="M0 0 C3.39914975 1.13304992 4.05254451 2.12518475 6 5 C6.66 4.01 7.32 3.02 8 2 C8 4.64 8 7.28 8 10 C6.84481082 9.09515208 5.70114594 8.1755794 4.5625 7.25 C3.60537109 6.48429687 3.60537109 6.48429687 2.62890625 5.703125 C0.81189446 3.80332371 0.39576803 2.56413092 0 0 Z " fill="#1F4994" transform="translate(748,440)"/>
<path d="M0 0 C1.44010481 0.25662245 2.8770687 0.53090821 4.3125 0.8125 C5.11300781 0.96332031 5.91351562 1.11414063 6.73828125 1.26953125 C9.23445587 2.07572236 10.32422106 3.02052002 12 5 C8.84979535 6.38609004 7.68081978 5.89180331 4.3125 4.75 C1 3 1 3 0 0 Z " fill="#1A4590" transform="translate(2147,321)"/>
<path d="M0 0 C0.66 0.66 1.32 1.32 2 2 C4.32275177 2.40047444 6.65739357 2.7397104 9 3 C9 3.99 9 4.98 9 6 C5.37 6 1.74 6 -2 6 C-1.34 4.02 -0.68 2.04 0 0 Z " fill="#134494" transform="translate(1011,179)"/>
<path d="M0 0 C1.08667969 0.01804687 2.17335938 0.03609375 3.29296875 0.0546875 C4.54013672 0.08949219 4.54013672 0.08949219 5.8125 0.125 C5.8125 0.785 5.8125 1.445 5.8125 2.125 C4.53375 2.269375 3.255 2.41375 1.9375 2.5625 C-0.44442894 2.83142746 -2.03202691 3.04726346 -4.1875 4.125 C-4.1875 3.465 -4.1875 2.805 -4.1875 2.125 C-5.8375 2.125 -7.4875 2.125 -9.1875 2.125 C-5.66070901 -0.22619399 -4.15870515 -0.08943452 0 0 Z " fill="#F74A48" transform="translate(597.1875,292.875)"/>
<path d="M0 0 C2.475 0.99 2.475 0.99 5 2 C4.1646875 2.37125 4.1646875 2.37125 3.3125 2.75 C0.83923251 3.98256472 0.83923251 3.98256472 -1.5625 6.1875 C-2.7690625 7.0846875 -2.7690625 7.0846875 -4 8 C-4.99 7.67 -5.98 7.34 -7 7 C-4.69 4.69 -2.38 2.38 0 0 Z " fill="#1B4A96" transform="translate(1671,332)"/>
<path d="M0 0 C0.33 0.99 0.66 1.98 1 3 C-0.9375 5.6875 -0.9375 5.6875 -3 8 C-6 3.25 -6 3.25 -6 1 C-4.02 0.67 -2.04 0.34 0 0 Z " fill="#FDF2F1" transform="translate(575,301)"/>
<path d="M0 0 C1.37494222 2.26461071 2.07991957 3.45654694 1.6875 6.125 C1 8 1 8 0 10 C-0.66 10 -1.32 10 -2 10 C-2.33 11.32 -2.66 12.64 -3 14 C-4 12 -4 12 -3.4765625 10.1953125 C-3.19554687 9.51210938 -2.91453125 8.82890625 -2.625 8.125 C-1.5304677 5.43470098 -0.64802394 2.83351645 0 0 Z " fill="#2F579D" transform="translate(1130,357)"/>
<path d="M0 0 C1.98 0 3.96 0 6 0 C6 0.99 6 1.98 6 3 C4.02 3.99 4.02 3.99 2 5 C1.01 4.01 0.02 3.02 -1 2 C-0.67 1.34 -0.34 0.68 0 0 Z " fill="#16458C" transform="translate(2090,349)"/>
<path d="M0 0 C4.61513112 1.31860889 8.09897612 3.21355437 12 6 C11.67 6.66 11.34 7.32 11 8 C8.33333333 6.66666667 5.66666667 5.33333333 3 4 C3 3.34 3 2.68 3 2 C2.01 2 1.02 2 0 2 C0 1.34 0 0.68 0 0 Z " fill="#E7ECF3" transform="translate(2002,343)"/>
<path d="M0 0 C-0.99 0 -1.98 0 -3 0 C-3 0.66 -3 1.32 -3 2 C-4.24420647 2.5345256 -5.49570936 3.05208611 -6.75 3.5625 C-7.44609375 3.85253906 -8.1421875 4.14257812 -8.859375 4.44140625 C-11.30012784 5.07831803 -12.6403655 4.80248831 -15 4 C-13.25705322 3.13153169 -11.50531337 2.28069373 -9.75 1.4375 C-8.77546875 0.96183594 -7.8009375 0.48617188 -6.796875 -0.00390625 C-3.90143703 -1.03510273 -2.80033839 -1.11346788 0 0 Z " fill="#2B5199" transform="translate(1696,321)"/>
<path d="M0 0 C0.90105469 0.01804687 1.80210938 0.03609375 2.73046875 0.0546875 C3.41753906 0.07789063 4.10460938 0.10109375 4.8125 0.125 C3.8225 1.61 3.8225 1.61 2.8125 3.125 C-0.8175 2.795 -4.4475 2.465 -8.1875 2.125 C-4.87379 -0.08414 -3.8428979 -0.09981553 0 0 Z " fill="#214F9D" transform="translate(1995.1875,317.875)"/>
<path d="M0 0 C3.96 0 7.92 0 12 0 C9.525 3.465 9.525 3.465 7 7 C6.34 6.34 5.68 5.68 5 5 C5.33 4.34 5.66 3.68 6 3 C6.66 3 7.32 3 8 3 C8 2.34 8 1.68 8 1 C5.36 1 2.72 1 0 1 C0 0.67 0 0.34 0 0 Z " fill="#2B5799" transform="translate(992,169)"/>
<path d="M0 0 C-2.34117681 2.7928508 -3.95863199 3.4622064 -7.5625 3.8125 C-8.74005859 3.94591797 -8.74005859 3.94591797 -9.94140625 4.08203125 C-12 4 -12 4 -14 2 C-9.07262981 0.02905192 -5.21979128 -0.1799928 0 0 Z " fill="#2E5293" transform="translate(1856,322)"/>
<path d="M0 0 C0.33 0 0.66 0 1 0 C1 2.64 1 5.28 1 8 C1.66 8 2.32 8 3 8 C2.67 11.3 2.34 14.6 2 18 C1.67 18 1.34 18 1 18 C-0.0712828 11.97403427 -0.09945415 6.11090483 0 0 Z " fill="#3562A3" transform="translate(1651,384)"/>
<path d="M0 0 C3.65316671 1.24976756 4.78065836 1.67098753 7 5 C4.3333581 6.33332095 2.83319697 5.67102033 0 5 C0 3.35 0 1.7 0 0 Z " fill="#0C3A88" transform="translate(384,334)"/>
<path d="M0 0 C-1.44253657 3.36591866 -3.33264727 5.51047079 -6 8 C-5.67 6.02 -5.34 4.04 -5 2 C-5.66 1.67 -6.32 1.34 -7 1 C-2.25 0 -2.25 0 0 0 Z " fill="#114189" transform="translate(1302,321)"/>
<path d="M0 0 C0.66 0.33 1.32 0.66 2 1 C0.8553125 2.0828125 0.8553125 2.0828125 -0.3125 3.1875 C-2.71133591 5.69790967 -4.35410221 7.96808302 -6 11 C-6.66 10.34 -7.32 9.68 -8 9 C-6.85459775 7.68712379 -5.70866567 6.37470979 -4.5625 5.0625 C-3.92441406 4.33160156 -3.28632812 3.60070312 -2.62890625 2.84765625 C-1.77458541 1.87860647 -0.91348825 0.91348825 0 0 Z " fill="#295199" transform="translate(1816,286)"/>
<path d="M0 0 C0 0.66 0 1.32 0 2 C-2.64 2.66 -5.28 3.32 -8 4 C-8 3.34 -8 2.68 -8 2 C-8.66 1.67 -9.32 1.34 -10 1 C-6.61981469 -0.04005702 -3.5219721 -0.08004482 0 0 Z " fill="#274C90" transform="translate(480,370)"/>
<path d="M0 0 C3.16115776 1.36983503 3.9927092 1.9890638 6 5 C6.125 7.6875 6.125 7.6875 6 10 C3.25722422 6.80009492 1.3697164 3.99500618 0 0 Z " fill="#113E8E" transform="translate(355,341)"/>
<path d="M0 0 C-3.28491373 2.18994248 -4.83095639 2.35277339 -8.6875 2.625 C-10.17830078 2.73714844 -10.17830078 2.73714844 -11.69921875 2.8515625 C-12.83810547 2.92503906 -12.83810547 2.92503906 -14 3 C-9.7368213 0.15788087 -5.03577274 -2.0143091 0 0 Z " fill="#F03530" transform="translate(618,320)"/>
<path d="M0 0 C-1.9626228 2.04795423 -3.4277307 2.94976638 -6.26953125 3.19921875 C-8.51954383 3.18858877 -10.75385562 3.12958525 -13 3 C-8.16353702 -0.22430866 -5.73060016 -0.09242903 0 0 Z " fill="#345DA0" transform="translate(1903,263)"/>
<path d="M0 0 C0.33 0.99 0.66 1.98 1 3 C-2.97610294 8.68014706 -2.97610294 8.68014706 -6.17578125 9.6796875 C-7.07876953 9.83824219 -7.07876953 9.83824219 -8 10 C-7.59007812 9.52949219 -7.18015625 9.05898437 -6.7578125 8.57421875 C-6.21898437 7.95160156 -5.68015625 7.32898438 -5.125 6.6875 C-4.59132813 6.07261719 -4.05765625 5.45773438 -3.5078125 4.82421875 C-1.8359553 2.86501788 -1.8359553 2.86501788 0 0 Z " fill="#DDE5ED" transform="translate(1002,171)"/>
<path d="M0 0 C1 4 1 4 0 7 C-1.98 7 -3.96 7 -6 7 C-4.02 4.69 -2.04 2.38 0 0 Z " fill="#134291" transform="translate(1392,413)"/>
<path d="M0 0 C0.33 0 0.66 0 1 0 C1.33 2.97 1.66 5.94 2 9 C0.02 9.99 0.02 9.99 -2 11 C-1.34 7.37 -0.68 3.74 0 0 Z " fill="#214C92" transform="translate(2025,389)"/>
<path d="M0 0 C1.125 1.5625 1.125 1.5625 2 4 C1.125 7.75 1.125 7.75 0 11 C-2 8 -2 8 -1.6875 4.375 C-1 1 -1 1 0 0 Z " fill="#E3E6ED" transform="translate(1124,368)"/>
<path d="M0 0 C0.598125 0.20625 1.19625 0.4125 1.8125 0.625 C0.4925 1.945 -0.8275 3.265 -2.1875 4.625 C-3.1775 4.295 -4.1675 3.965 -5.1875 3.625 C-5.1875 2.965 -5.1875 2.305 -5.1875 1.625 C-2.1875 -0.375 -2.1875 -0.375 0 0 Z " fill="#0F3780" transform="translate(2093.1875,325.375)"/>
<path d="M0 0 C0.66 0.66 1.32 1.32 2 2 C0 4 0 4 -3.625 4.125 C-4.73875 4.08375 -5.8525 4.0425 -7 4 C-4.86535088 1.54515351 -3.29279709 0.31865778 0 0 Z " fill="#18438F" transform="translate(1838,326)"/>
<path d="M0 0 C-2.59482129 2.59482129 -4.39883625 2.69990302 -8 3 C-8.66 2.34 -9.32 1.68 -10 1 C-6.21812119 -0.83691257 -4.05431692 -1.15837626 0 0 Z " fill="#23519D" transform="translate(1030,170)"/>
<path d="M0 0 C-3.55818936 2.26273207 -6.12547951 2.07331744 -10.25 1.625 C-11.32765625 1.51414062 -12.4053125 1.40328125 -13.515625 1.2890625 C-14.74539063 1.14597656 -14.74539063 1.14597656 -16 1 C-16 0.67 -16 0.34 -16 0 C-14.08416353 -0.1958009 -12.16727461 -0.38132214 -10.25 -0.5625 C-8.64898438 -0.71912109 -8.64898438 -0.71912109 -7.015625 -0.87890625 C-4.35858796 -0.98560074 -2.50039428 -0.81930395 0 0 Z " fill="#B6C7DE" transform="translate(1090,495)"/>
<path d="M0 0 C-4.39285714 3.05059524 -4.39285714 3.05059524 -7.25 2.8125 C-9 2 -9 2 -10 0 C-2.25 -1.125 -2.25 -1.125 0 0 Z " fill="#0A337E" transform="translate(1098,490)"/>
<path d="M0 0 C0.66 0 1.32 0 2 0 C2 1.32 2 2.64 2 4 C2.66 4 3.32 4 4 4 C4.33 4.99 4.66 5.98 5 7 C2.5625 6.25 2.5625 6.25 0 5 C-0.875 2.9375 -0.875 2.9375 -1 1 C-0.67 0.67 -0.34 0.34 0 0 Z " fill="#1F4B93" transform="translate(2076,339)"/>
<path d="M0 0 C2.375 0.3125 2.375 0.3125 5 1 C5.66 1.99 6.32 2.98 7 4 C6.67 4.99 6.34 5.98 6 7 C4.02 4.69 2.04 2.38 0 0 Z " fill="#D1D9E7" transform="translate(1755,331)"/>
<path d="M0 0 C0.66 0.99 1.32 1.98 2 3 C1.125 6.1875 1.125 6.1875 0 9 C-0.66 9 -1.32 9 -2 9 C-1.34 6.03 -0.68 3.06 0 0 Z " fill="#164192" transform="translate(1798,315)"/>
<path d="M0 0 C0.66 0.66 1.32 1.32 2 2 C1.625 4.125 1.625 4.125 1 6 C-0.32 5.67 -1.64 5.34 -3 5 C-2.01 3.35 -1.02 1.7 0 0 Z " fill="#13408B" transform="translate(1093,458)"/>
<path d="M0 0 C0.66 0.99 1.32 1.98 2 3 C1.01 4.98 0.02 6.96 -1 9 C-1.66 8.67 -2.32 8.34 -3 8 C-1.125 2.25 -1.125 2.25 0 0 Z " fill="#1B4A99" transform="translate(2073,388)"/>
<path d="M0 0 C-0.375 1.9375 -0.375 1.9375 -1 4 C-1.99 4.495 -1.99 4.495 -3 5 C-3 4.34 -3 3.68 -3 3 C-4.32 2.67 -5.64 2.34 -7 2 C-4.35261084 0.5393715 -3.10551666 0 0 0 Z " fill="#19428C" transform="translate(2096,373)"/>
<path d="M0 0 C0.66 0 1.32 0 2 0 C1.75 2.375 1.75 2.375 1 5 C-1.0625 6.3125 -1.0625 6.3125 -3 7 C-1.125 1.125 -1.125 1.125 0 0 Z " fill="#224E97" transform="translate(1136,344)"/>
<path d="M0 0 C0 0.66 0 1.32 0 2 C-5.41538462 3.23076923 -5.41538462 3.23076923 -8.375 2.0625 C-8.91125 1.711875 -9.4475 1.36125 -10 1 C-8.71073008 0.63720544 -7.41846728 0.28503302 -6.125 -0.0625 C-5.40570312 -0.25972656 -4.68640625 -0.45695312 -3.9453125 -0.66015625 C-2 -1 -2 -1 0 0 Z " fill="#F0F3F7" transform="translate(1888,265)"/>
<path d="M0 0 C0.66 0.33 1.32 0.66 2 1 C2 2.32 2 3.64 2 5 C0.35 4.67 -1.3 4.34 -3 4 C-2.67 3.01 -2.34 2.02 -2 1 C-1.34 0.67 -0.68 0.34 0 0 Z " fill="#0B3676" transform="translate(945,185)"/>
<path d="M0 0 C1.875 0.25 1.875 0.25 4 1 C5.25 3.0625 5.25 3.0625 6 5 C3 5 3 5 1.3125 3.625 C0 2 0 2 0 0 Z " fill="#21509A" transform="translate(1964,431)"/>
<path d="M0 0 C0.99 0 1.98 0 3 0 C1.95125002 2.62187494 1.35068687 3.79371361 -1.125 5.25 C-1.74375 5.4975 -2.3625 5.745 -3 6 C-1.125 1.125 -1.125 1.125 0 0 Z " fill="#1B4790" transform="translate(2020,407)"/>
<path d="M0 0 C1.23666047 3.57257469 0.89093449 6.35526801 0 10 C-0.99 10.495 -0.99 10.495 -2 11 C-1.125 3.375 -1.125 3.375 0 0 Z " fill="#30599D" transform="translate(1125,372)"/>
<path d="M0 0 C0.33 0.66 0.66 1.32 1 2 C-0.65 3.65 -2.3 5.3 -4 7 C-4 6.34 -4 5.68 -4 5 C-4.66 4.67 -5.32 4.34 -6 4 C-4.02 2.68 -2.04 1.36 0 0 Z " fill="#F7E8E7" transform="translate(578,373)"/>
<path d="M0 0 C0.66 0.33 1.32 0.66 2 1 C1.67 1.99 1.34 2.98 1 4 C-1.31 4.33 -3.62 4.66 -6 5 C-5.195625 4.360625 -4.39125 3.72125 -3.5625 3.0625 C-1.7249496 1.59396498 -1.7249496 1.59396498 0 0 Z " fill="#234D95" transform="translate(1978,322)"/>
<path d="M0 0 C0.66 0.66 1.32 1.32 2 2 C1.625 4.625 1.625 4.625 1 7 C0.01 7 -0.98 7 -2 7 C-1.34 4.69 -0.68 2.38 0 0 Z " fill="#29529A" transform="translate(1801,306)"/>
<path d="M0 0 C0.99 0.33 1.98 0.66 3 1 C1.71034824 2.37562854 0.37310707 3.70766393 -1 5 C-1.66 5 -2.32 5 -3 5 C-3.33 5.66 -3.66 6.32 -4 7 C-3.43628586 3.73045798 -2.50037734 2.17424117 0 0 Z " fill="#F64844" transform="translate(581,297)"/>
<path d="M0 0 C0.66 0 1.32 0 2 0 C2.33 1.65 2.66 3.3 3 5 C1.02 5.99 1.02 5.99 -1 7 C-0.67 4.69 -0.34 2.38 0 0 Z " fill="#174589" transform="translate(1016,200)"/>
<path d="M0 0 C1.32 0 2.64 0 4 0 C3.67 1.32 3.34 2.64 3 4 C1.68 3.67 0.36 3.34 -1 3 C-0.67 2.01 -0.34 1.02 0 0 Z " fill="#0D397A" transform="translate(963,187)"/>
<path d="M0 0 C0 0.33 0 0.66 0 1 C-2.97 1 -5.94 1 -9 1 C-9.33 0.34 -9.66 -0.32 -10 -1 C-6.18510326 -2.46726798 -3.70988378 -1.43336419 0 0 Z " fill="#134797" transform="translate(1047,172)"/>
</svg>
